<svg width="564" height="498" viewBox="0 0 564 498" fill="none" xmlns="http://www.w3.org/2000/svg">
<path d="M235.843 491.628C223.63 473.033 171.492 394.846 156.235 392.755C141.367 390.717 88.5317 469.775 74.2402 491.628H235.843Z" fill="#2E353A" stroke="#2E353A" stroke-linecap="round" stroke-linejoin="round"/>
<path d="M302.702 34.771V215.076" stroke="#2E353A" stroke-width="3" stroke-linecap="round" stroke-linejoin="round"/>
<path d="M324.126 39.6108V215.076" stroke="#2E353A" stroke-width="3" stroke-linecap="round" stroke-linejoin="round"/>
<path d="M347.614 135.629V305.584" stroke="#2E353A" stroke-width="3" stroke-linecap="round" stroke-linejoin="round"/>
<path d="M372.484 39.6108V305.585" stroke="#2E353A" stroke-width="3" stroke-linecap="round" stroke-linejoin="round"/>
<path d="M397.353 39.6108V219.916" stroke="#2E353A" stroke-width="3" stroke-linecap="round" stroke-linejoin="round"/>
<path d="M284.053 58.9434H398.05" stroke="#2E353A" stroke-width="3" stroke-linecap="round" stroke-linejoin="round"/>
<path d="M284.053 99.0156H407.676" stroke="#2E353A" stroke-width="3" stroke-linecap="round" stroke-linejoin="round"/>
<path d="M281.989 135.629H419.46" stroke="#2E353A" stroke-width="3" stroke-linecap="round" stroke-linejoin="round"/>
<path d="M279.911 176.398H419.46" stroke="#2E353A" stroke-width="3" stroke-linecap="round" stroke-linejoin="round"/>
<path d="M306.161 220.6H411.859" stroke="#2E353A" stroke-width="3" stroke-linecap="round" stroke-linejoin="round"/>
<path d="M333.792 263.434H402.876" stroke="#2E353A" stroke-width="3" stroke-linecap="round" stroke-linejoin="round"/>
<path d="M151.918 51.8916L176.305 70.9826" stroke="#2E353A" stroke-width="2" stroke-linecap="round" stroke-linejoin="round"/>
<path d="M200.691 31.7549L209.178 44.4778" stroke="#2E353A" stroke-width="2" stroke-linecap="round" stroke-linejoin="round"/>
<path d="M244.169 1L251.596 24.3275" stroke="#2E353A" stroke-width="2" stroke-linecap="round" stroke-linejoin="round"/>
<path d="M383.303 300.772H343.083V205.143H288.518V35.7769C265.522 36.0039 242.97 42.1427 223.032 53.6031C203.094 65.0635 186.438 81.4602 174.668 101.217C162.897 120.974 156.406 143.426 155.819 166.416C155.233 189.406 160.57 212.161 171.318 232.492C175.688 242.668 185.958 267.59 196.24 299.82C205.746 329.569 210.706 359.479 210.706 363.997C210.706 364.44 210.706 364.896 210.706 365.338C210.659 366.683 210.884 368.023 211.366 369.28C211.848 370.536 212.578 371.682 213.512 372.651C214.447 373.619 215.567 374.389 216.805 374.915C218.044 375.442 219.375 375.714 220.721 375.715H359.144C360.489 375.712 361.82 375.439 363.057 374.912C364.295 374.385 365.414 373.614 366.348 372.646C367.282 371.679 368.012 370.533 368.495 369.277C368.978 368.022 369.204 366.682 369.159 365.338C369.159 364.855 369.159 364.4 369.159 363.997C369.132 359.533 373.999 330.199 383.303 300.772Z" fill="#254EF0" stroke="#2E353A" stroke-width="2" stroke-linecap="round" stroke-linejoin="round"/>
<path d="M243.083 57.3881C246.963 55.6389 250.942 54.1213 255.001 52.8433" stroke="#2E353A" stroke-width="2" stroke-linecap="round" stroke-linejoin="round"/>
<path d="M198.439 91.3605C198.439 91.3605 209.365 73.932 233.377 62.2012" stroke="#2E353A" stroke-width="2" stroke-linecap="round" stroke-linejoin="round"/>
<path d="M201.308 284.309C206.282 300.557 212.865 323.067 215.144 335.642C219.005 356.852 216.484 367.818 224.796 369.709" stroke="#2E353A" stroke-width="2" stroke-linecap="round" stroke-linejoin="round"/>
<path d="M195.221 264.922C195.221 264.922 196.562 269.28 198.721 275.956" stroke="#2E353A" stroke-width="2" stroke-linecap="round" stroke-linejoin="round"/>
<path d="M281.439 374.414V246.247C281.439 246.247 286.802 212.73 269.373 212.73C251.945 212.73 253.285 230.159 273.395 248.928C293.505 267.698 324.34 250.269 328.362 235.522C332.384 220.774 321.659 214.071 314.956 226.137C308.253 238.203 314.956 374.95 314.956 374.95" stroke="#2E353A" stroke-width="2" stroke-linecap="round" stroke-linejoin="round"/>
<path d="M362.643 374.937H217.972V408.507H362.643V374.937Z" fill="white" stroke="#2E353A" stroke-width="2" stroke-linecap="round" stroke-linejoin="round"/>
<path d="M362.643 416.498H217.972V450.068H362.643V416.498Z" fill="white" stroke="#2E353A" stroke-width="2" stroke-linecap="round" stroke-linejoin="round"/>
<path d="M362.643 408.507H217.972V416.498H362.643V408.507Z" fill="#2E353A" stroke="#2E353A" stroke-linecap="round" stroke-linejoin="round"/>
<path d="M362.643 458.058H217.972V491.628H362.643V458.058Z" fill="white" stroke="#2E353A" stroke-width="2" stroke-linecap="round" stroke-linejoin="round"/>
<path d="M347.507 404.016H358.259" stroke="#2E353A" stroke-linecap="round" stroke-linejoin="round"/>
<path d="M223.657 404.016H342.332" stroke="#2E353A" stroke-linecap="round" stroke-linejoin="round"/>
<path d="M319.621 446.233H354.277" stroke="#2E353A" stroke-linecap="round" stroke-linejoin="round"/>
<path d="M245.134 446.233H315.64" stroke="#2E353A" stroke-linecap="round" stroke-linejoin="round"/>
<path d="M233.591 446.233H239.557" stroke="#2E353A" stroke-linecap="round" stroke-linejoin="round"/>
<path d="M362.643 450.068H217.972V458.058H362.643V450.068Z" fill="#2E353A" stroke="#2E353A" stroke-linecap="round" stroke-linejoin="round"/>
<path d="M286.333 465.418H236.809V491.199H286.333V465.418Z" fill="#254EF0" stroke="#2E353A" stroke-linecap="round" stroke-linejoin="round"/>
<path d="M350.778 465.418H301.254V491.199H350.778V465.418Z" fill="#254EF0" stroke="#2E353A" stroke-linecap="round" stroke-linejoin="round"/>
<path d="M395.328 491.628C385.836 483.303 345.308 448.298 333.51 447.386C321.954 446.461 280.93 481.868 269.829 491.628H395.328Z" fill="#2E353A" stroke="#2E353A" stroke-linecap="round" stroke-linejoin="round"/>
<path d="M551.797 491.628H563.434" stroke="#2E353A" stroke-linecap="round" stroke-linejoin="round"/>
<path d="M19.0989 491.628H540.16" stroke="#2E353A" stroke-linecap="round" stroke-linejoin="round"/>
<path d="M1 491.628H10.0495" stroke="#2E353A" stroke-linecap="round" stroke-linejoin="round"/>
<path d="M528.376 415.117H493.585V463.917H507.998H528.376H542.801V439.517L528.376 415.117Z" fill="#2E353A" stroke="#2E353A" stroke-linecap="round" stroke-linejoin="round"/>
<path d="M542.801 463.917H526.861V475.004H542.801V463.917Z" fill="white" stroke="#2E353A" stroke-linecap="round" stroke-linejoin="round"/>
<path d="M467.724 463.367C467.724 463.367 485.153 453.982 479.12 407.059L456.999 394.993L418.79 388.96L384.603 390.301V409.741C384.603 409.741 404.043 426.499 406.054 431.862C407.315 435.532 407.994 439.377 408.065 443.257V462.026L467.724 463.367Z" fill="#254EF0" stroke="#2E353A" stroke-linecap="round" stroke-linejoin="round"/>
<path d="M479.12 407.06L467.724 463.367" stroke="#2E353A" stroke-linecap="round" stroke-linejoin="round"/>
<path d="M456.999 394.994L444.263 463.367" stroke="#2E353A" stroke-linecap="round" stroke-linejoin="round"/>
<path d="M418.79 388.96L409.405 439.906" stroke="#2E353A" stroke-linecap="round" stroke-linejoin="round"/>
<path d="M385.944 407.06C385.944 407.06 408.065 416.444 416.779 422.477C425.493 428.51 424.153 441.246 424.153 441.246" stroke="#2E353A" stroke-linecap="round" stroke-linejoin="round"/>
<path d="M493.894 464.266H389.952V472.98H493.894V464.266Z" fill="white" stroke="#2E353A" stroke-linecap="round" stroke-linejoin="round"/>
<path d="M514.647 441.917H536.353L524.702 421.807H514.647V441.917Z" fill="white" stroke="#2E353A" stroke-linecap="round" stroke-linejoin="round"/>
<path d="M511.296 421.807H501.911V441.917H511.296V421.807Z" fill="white" stroke="#2E353A" stroke-linecap="round" stroke-linejoin="round"/>
<path d="M453.781 463.917H390.502V479.026H453.781V463.917Z" fill="white" stroke="#2E353A" stroke-linecap="round" stroke-linejoin="round"/>
<path d="M513.728 491.384C520.963 490.077 525.769 483.152 524.462 475.916C523.155 468.681 516.23 463.875 508.994 465.182C501.759 466.489 496.953 473.414 498.26 480.65C499.567 487.885 506.492 492.691 513.728 491.384Z" fill="#2E353A" stroke="#2E353A" stroke-linecap="round" stroke-linejoin="round"/>
<path d="M511.336 486.091C515.623 486.091 519.098 482.616 519.098 478.329C519.098 474.042 515.623 470.566 511.336 470.566C507.049 470.566 503.573 474.042 503.573 478.329C503.573 482.616 507.049 486.091 511.336 486.091Z" fill="white" stroke="#2E353A" stroke-linecap="round" stroke-linejoin="round"/>
<path d="M411.123 491.412C418.363 490.13 423.193 483.222 421.911 475.982C420.629 468.742 413.721 463.912 406.481 465.194C399.242 466.476 394.412 473.384 395.693 480.624C396.975 487.863 403.883 492.693 411.123 491.412Z" fill="#2E353A" stroke="#2E353A" stroke-linecap="round" stroke-linejoin="round"/>
<path d="M408.775 486.091C413.062 486.091 416.538 482.616 416.538 478.329C416.538 474.042 413.062 470.566 408.775 470.566C404.488 470.566 401.013 474.042 401.013 478.329C401.013 482.616 404.488 486.091 408.775 486.091Z" fill="white" stroke="#2E353A" stroke-linecap="round" stroke-linejoin="round"/>
<path d="M449.922 488.078C455.337 483.105 455.696 474.683 450.723 469.268C445.75 463.852 437.329 463.493 431.913 468.466C426.498 473.439 426.139 481.86 431.112 487.276C436.085 492.692 444.506 493.05 449.922 488.078Z" fill="#2E353A" stroke="#2E353A" stroke-linecap="round" stroke-linejoin="round"/>
<path d="M440.911 486.091C445.198 486.091 448.673 482.616 448.673 478.329C448.673 474.042 445.198 470.566 440.911 470.566C436.624 470.566 433.148 474.042 433.148 478.329C433.148 482.616 436.624 486.091 440.911 486.091Z" fill="white" stroke="#2E353A" stroke-linecap="round" stroke-linejoin="round"/>
<path d="M436.554 440.576H403.037C400.631 440.576 398.68 442.527 398.68 444.933V459.01C398.68 461.417 400.631 463.367 403.037 463.367H436.554C438.96 463.367 440.911 461.417 440.911 459.01V444.933C440.911 442.527 438.96 440.576 436.554 440.576Z" fill="#2E353A" stroke="#2E353A" stroke-linecap="round" stroke-linejoin="round"/>
<path d="M381.922 463.367V397.072H395.328V463.367" stroke="#2E353A" stroke-linecap="round" stroke-linejoin="round"/>
<path d="M382.016 405.853H395.181" stroke="#2E353A" stroke-linecap="round" stroke-linejoin="round"/>
<path d="M382.016 416.203H395.181" stroke="#2E353A" stroke-linecap="round" stroke-linejoin="round"/>
<path d="M382.016 426.553H395.181" stroke="#2E353A" stroke-linecap="round" stroke-linejoin="round"/>
<path d="M382.016 436.916H395.181" stroke="#2E353A" stroke-linecap="round" stroke-linejoin="round"/>
<path d="M382.016 447.266H395.181" stroke="#2E353A" stroke-linecap="round" stroke-linejoin="round"/>
<path d="M382.016 457.616H395.181" stroke="#2E353A" stroke-linecap="round" stroke-linejoin="round"/>
<path d="M113.776 492.929H89.6445V71.9614L113.776 100.021V492.929Z" stroke="#2E353A" stroke-linecap="round" stroke-linejoin="round"/>
<path d="M89.8857 404.445H113.548L89.8857 381.56H113.548L89.8857 404.445Z" stroke="#2E353A" stroke-linecap="round" stroke-linejoin="round"/>
<path d="M89.8857 380.984H113.548L89.8857 358.099H113.548L89.8857 380.984Z" stroke="#2E353A" stroke-linecap="round" stroke-linejoin="round"/>
<path d="M89.8857 357.522H113.548L89.8857 334.637H113.548L89.8857 357.522Z" stroke="#2E353A" stroke-linecap="round" stroke-linejoin="round"/>
<path d="M89.8857 334.06H113.548L89.8857 311.175H113.548L89.8857 334.06Z" stroke="#2E353A" stroke-linecap="round" stroke-linejoin="round"/>
<path d="M89.8857 310.599H113.548L89.8857 287.714H113.548L89.8857 310.599Z" stroke="#2E353A" stroke-linecap="round" stroke-linejoin="round"/>
<path d="M89.8857 287.138H113.548L89.8857 264.252H113.548L89.8857 287.138Z" stroke="#2E353A" stroke-linecap="round" stroke-linejoin="round"/>
<path d="M89.8857 263.676H113.548L89.8857 240.791H113.548L89.8857 263.676Z" stroke="#2E353A" stroke-linecap="round" stroke-linejoin="round"/>
<path d="M89.8857 240.214H113.548L89.8857 217.329H113.548L89.8857 240.214Z" stroke="#2E353A" stroke-linecap="round" stroke-linejoin="round"/>
<path d="M89.8857 216.753H113.548L89.8857 193.868H113.548L89.8857 216.753Z" stroke="#2E353A" stroke-linecap="round" stroke-linejoin="round"/>
<path d="M89.8857 193.291H113.548L89.8857 170.406H113.548L89.8857 193.291Z" stroke="#2E353A" stroke-linecap="round" stroke-linejoin="round"/>
<path d="M89.8857 169.829H113.548L89.8857 146.944H113.548L89.8857 169.829Z" stroke="#2E353A" stroke-linecap="round" stroke-linejoin="round"/>
<path d="M89.8857 146.368H113.548L89.8857 123.483H113.548L89.8857 146.368Z" stroke="#2E353A" stroke-linecap="round" stroke-linejoin="round"/>
<path d="M89.8857 122.907H113.548L89.8857 100.021H113.548L89.8857 122.907Z" stroke="#2E353A" stroke-linecap="round" stroke-linejoin="round"/>
<path d="M225.815 123.536L214.125 116.176H130.696L120.507 123.536H225.815Z" stroke="#2E353A" stroke-linecap="round" stroke-linejoin="round"/>
<path d="M227.746 122.906H23.9656V128.269H227.746V122.906Z" fill="#2E353A" stroke="#2E353A" stroke-linecap="round" stroke-linejoin="round"/>
<path d="M214.125 116.176L89.6445 71.9614L130.696 116.176" stroke="#2E353A" stroke-linecap="round" stroke-linejoin="round"/>
<path d="M89.6579 71.9614L23.9656 122.907" stroke="#2E353A" stroke-linecap="round" stroke-linejoin="round"/>
<path d="M131.218 134.302H80.9436V166.478H131.218V134.302Z" fill="#2E353A" stroke="#2E353A" stroke-linecap="round" stroke-linejoin="round"/>
<path d="M120.734 141.005H91.4141V150.39H120.734V141.005Z" fill="white" stroke="#2E353A" stroke-linecap="round" stroke-linejoin="round"/>
<path d="M227.746 128.269V186.078" stroke="#2E353A" stroke-linecap="round" stroke-linejoin="round"/>
<path d="M235.388 205.826H220.493V222.705H235.388V205.826Z" fill="#2E353A" stroke="#2E353A" stroke-linecap="round" stroke-linejoin="round"/>
<path d="M220.493 205.826L227.947 184.979L235.401 205.826" stroke="#2E353A" stroke-linecap="round" stroke-linejoin="round"/>
<path d="M187.566 409.513L219.742 460.378L227.786 454.492L204.11 407.14C203.046 405.012 201.41 403.222 199.385 401.971C197.36 400.721 195.027 400.06 192.647 400.062C191.555 400.082 190.488 400.392 189.555 400.962C188.622 401.531 187.858 402.338 187.341 403.3C186.823 404.263 186.572 405.345 186.611 406.437C186.651 407.529 186.98 408.591 187.566 409.513Z" fill="#254EF0" stroke="#2E353A" stroke-linecap="round" stroke-linejoin="round"/>
<path d="M224.957 447.869L191.856 471.411C191.856 471.411 194.806 483.906 213.924 483.169C233.042 482.431 232.318 462.576 232.318 462.576L224.957 447.869Z" fill="#2E353A" stroke="white" stroke-linecap="round" stroke-linejoin="round"/>
<path d="M133.015 432.425L192.969 405.411C194.947 404.521 197.169 404.335 199.266 404.884C201.364 405.433 203.211 406.683 204.499 408.427C205.252 409.446 205.793 410.605 206.09 411.836C206.387 413.067 206.435 414.345 206.23 415.595C206.025 416.844 205.571 418.04 204.897 419.112C204.222 420.183 203.339 421.109 202.3 421.834L136.702 467.751L133.015 432.425Z" fill="#254EF0" stroke="#2E353A" stroke-linecap="round" stroke-linejoin="round"/>
<path d="M124.193 465.526H62.4023V475.085H124.193V465.526Z" fill="white" stroke="#2E353A" stroke-linecap="round" stroke-linejoin="round"/>
<path d="M94.0284 438.311H40.335V460.378H94.0284V438.311Z" fill="#2E353A" stroke="#2E353A" stroke-linecap="round" stroke-linejoin="round"/>
<path d="M87.0437 413.293H132.626C133.693 413.293 134.716 413.717 135.47 414.472C136.224 415.226 136.648 416.249 136.648 417.315V460.351H83.0083V417.315C83.0083 416.786 83.1128 416.262 83.3157 415.773C83.5187 415.284 83.8161 414.84 84.191 414.467C84.5659 414.093 85.0109 413.797 85.5004 413.596C85.9899 413.394 86.5144 413.292 87.0437 413.293Z" fill="#254EF0" stroke="#2E353A" stroke-linecap="round" stroke-linejoin="round"/>
<path d="M39.7853 491.628H127.692C130.469 491.628 133.133 490.525 135.096 488.562C137.06 486.598 138.163 483.935 138.163 481.158C138.163 478.38 137.06 475.715 135.097 473.749C133.134 471.784 130.471 470.677 127.692 470.674H39.7853C37.0071 470.677 34.3439 471.784 32.3806 473.749C30.4174 475.715 29.3147 478.38 29.3147 481.158C29.3147 483.935 30.4178 486.598 32.3815 488.562C34.3451 490.525 37.0083 491.628 39.7853 491.628Z" fill="#2E353A" stroke="#2E353A" stroke-linecap="round" stroke-linejoin="round"/>
<path d="M53.0311 491.628H140.925C143.703 491.628 146.368 490.526 148.333 488.562C150.299 486.599 151.405 483.936 151.409 481.158C151.409 478.377 150.304 475.711 148.338 473.745C146.372 471.778 143.705 470.674 140.925 470.674H53.0311C50.2506 470.674 47.5839 471.778 45.6178 473.745C43.6517 475.711 42.5471 478.377 42.5471 481.158C42.5507 483.936 43.6568 486.599 45.6225 488.562C47.5883 490.526 50.2529 491.628 53.0311 491.628Z" fill="white" stroke="#2E353A" stroke-linecap="round" stroke-linejoin="round"/>
<path d="M136.688 460.377H40.335V467.738H136.688V460.377Z" fill="white" stroke="#2E353A" stroke-linecap="round" stroke-linejoin="round"/>
<path d="M60.2035 481.158C60.2035 482.468 59.8151 483.748 59.0873 484.837C58.3596 485.927 57.3253 486.775 56.1151 487.277C54.9049 487.778 53.5733 487.909 52.2886 487.654C51.0039 487.398 49.8238 486.767 48.8976 485.841C47.9713 484.915 47.3406 483.735 47.085 482.45C46.8295 481.165 46.9606 479.834 47.4619 478.624C47.9632 477.413 48.812 476.379 49.9012 475.651C50.9903 474.924 52.2707 474.535 53.5806 474.535C55.3371 474.535 57.0217 475.233 58.2637 476.475C59.5057 477.717 60.2035 479.402 60.2035 481.158Z" fill="#2E353A" stroke="#2E353A" stroke-linecap="round" stroke-linejoin="round"/>
<path d="M71.2371 487.781C74.8948 487.781 77.86 484.816 77.86 481.158C77.86 477.5 74.8948 474.535 71.2371 474.535C67.5794 474.535 64.6143 477.5 64.6143 481.158C64.6143 484.816 67.5794 487.781 71.2371 487.781Z" fill="#2E353A" stroke="#2E353A" stroke-linecap="round" stroke-linejoin="round"/>
<path d="M88.8802 487.781C92.5379 487.781 95.5031 484.816 95.5031 481.158C95.5031 477.5 92.5379 474.535 88.8802 474.535C85.2225 474.535 82.2573 477.5 82.2573 481.158C82.2573 484.816 85.2225 487.781 88.8802 487.781Z" fill="#2E353A" stroke="#2E353A" stroke-linecap="round" stroke-linejoin="round"/>
<path d="M113.16 481.158C113.16 482.468 112.771 483.748 112.043 484.837C111.316 485.927 110.281 486.775 109.071 487.277C107.861 487.778 106.529 487.909 105.245 487.654C103.96 487.398 102.78 486.767 101.854 485.841C100.927 484.915 100.297 483.735 100.041 482.45C99.7855 481.165 99.9167 479.834 100.418 478.624C100.919 477.413 101.768 476.379 102.857 475.651C103.946 474.924 105.227 474.535 106.537 474.535C108.293 474.535 109.978 475.233 111.22 476.475C112.462 477.717 113.16 479.402 113.16 481.158Z" fill="#2E353A" stroke="#2E353A" stroke-linecap="round" stroke-linejoin="round"/>
<path d="M130.816 481.158C130.816 482.468 130.428 483.748 129.7 484.837C128.972 485.927 127.938 486.775 126.728 487.277C125.517 487.778 124.186 487.909 122.901 487.654C121.616 487.398 120.436 486.767 119.51 485.841C118.584 484.915 117.953 483.735 117.698 482.45C117.442 481.165 117.573 479.834 118.074 478.624C118.576 477.413 119.425 476.379 120.514 475.651C121.603 474.924 122.883 474.535 124.193 474.535C125.95 474.535 127.634 475.233 128.876 476.475C130.118 477.717 130.816 479.402 130.816 481.158Z" fill="#2E353A" stroke="#2E353A" stroke-linecap="round" stroke-linejoin="round"/>
<path d="M148.459 481.158C148.459 482.468 148.071 483.749 147.342 484.839C146.614 485.928 145.579 486.777 144.368 487.278C143.157 487.779 141.825 487.909 140.539 487.653C139.254 487.396 138.074 486.764 137.149 485.836C136.223 484.909 135.593 483.727 135.339 482.442C135.085 481.156 135.218 479.824 135.722 478.614C136.225 477.404 137.076 476.371 138.167 475.645C139.258 474.919 140.539 474.533 141.85 474.535C142.719 474.535 143.58 474.707 144.382 475.04C145.185 475.373 145.914 475.861 146.528 476.476C147.142 477.091 147.629 477.821 147.96 478.625C148.291 479.428 148.461 480.289 148.459 481.158Z" fill="#2E353A" stroke="#2E353A" stroke-linecap="round" stroke-linejoin="round"/>
<path d="M199.954 413.294C199.954 412.564 199.737 411.851 199.332 411.244C198.926 410.638 198.349 410.165 197.675 409.886C197 409.608 196.258 409.535 195.543 409.679C194.827 409.822 194.171 410.175 193.655 410.692C193.14 411.208 192.79 411.867 192.65 412.583C192.509 413.299 192.584 414.04 192.865 414.714C193.146 415.387 193.621 415.962 194.229 416.366C194.837 416.769 195.551 416.983 196.281 416.981C196.764 416.981 197.243 416.885 197.689 416.7C198.136 416.514 198.542 416.242 198.883 415.9C199.224 415.557 199.494 415.151 199.678 414.704C199.862 414.256 199.956 413.777 199.954 413.294Z" fill="#2E353A" stroke="#2E353A" stroke-linecap="round" stroke-linejoin="round"/>
<path d="M128.604 419.179H89.6177V442.721H128.604V419.179Z" fill="white" stroke="#2E353A" stroke-linecap="round" stroke-linejoin="round"/>
<path d="M128.604 419.179H107.274V442.721H128.604V419.179Z" fill="white" stroke="#2E353A" stroke-linecap="round" stroke-linejoin="round"/>
</svg>
