<svg width="58" height="55" viewBox="0 0 58 55" fill="none" xmlns="http://www.w3.org/2000/svg">
<path fill-rule="evenodd" clip-rule="evenodd" d="M49.7789 43.9152C49.7789 43.2903 51.0844 43.6957 52.1634 43.6957V48.5247H49.7789V43.9152ZM49.7789 34.6962H52.1634V39.6349H49.7789V34.6962ZM49.7789 25.9162H52.1634V30.8549H49.7789V25.9162ZM49.7789 17.1362H52.1634V22.0749H49.7789V17.1362ZM49.7789 8.35624H52.1634V13.295H49.7789V8.35624ZM22.9821 7.36849C22.9821 15.5364 22.5751 14.5891 24.1549 13.8798L28.5459 11.9779C29.1665 11.9779 38.2217 15.1479 39.122 15.4741C39.8437 15.7356 40.5067 15.904 41.2297 16.1806C41.8854 16.4315 45.0806 17.5352 45.5777 17.5752V54.9998H57.5V5.50279C55.9715 5.15856 44.3142 1.35036 41.76 0.522572C41.3371 0.385486 41.071 0.322463 40.6359 0.181738C39.3508 -0.233887 39.4938 0.086263 37.4181 0.908535C33.4932 2.46337 28.8564 4.68877 24.896 6.25524C24.4486 6.43218 22.9821 6.92751 22.9821 7.36855L22.9821 7.36849Z" fill="white" fill-opacity="0.8"/>
<path fill-rule="evenodd" clip-rule="evenodd" d="M4.24701 49.7318H21.1653V52.1463H4.24701V49.7318ZM4.24701 45.5613V43.037C4.92477 43.037 5.67425 42.8772 6.30062 42.827L21.1653 41.2811V43.8053C19.3704 43.844 11.0987 44.9541 8.55781 45.1185L4.24707 45.5613H4.24701ZM4.24701 38.9763V36.4521C4.67594 36.4428 4.97604 36.3267 5.29672 36.2594C5.6939 36.1761 5.93927 36.1444 6.33538 36.0561L18.9803 33.462C19.5179 33.3507 20.5426 33.0632 21.1653 33.0498V35.5741C20.4582 35.5741 19.7527 35.8174 19.0555 35.9492L8.47736 38.1265C7.82646 38.2516 7.10326 38.4139 6.41496 38.5475C5.77661 38.6715 4.88241 38.9251 4.24701 38.9763V38.9763ZM4.24701 32.2816V29.7573C4.77359 29.715 9.5993 28.1825 10.5054 27.9045C11.2336 27.6811 12.0088 27.4337 12.6734 27.2563C13.4481 27.0495 13.9631 26.8562 14.7589 26.638L16.9227 25.9857C17.6464 25.7559 18.2938 25.5796 18.9928 25.3525L21.1654 24.7088V27.233L4.24707 32.2815L4.24701 32.2816ZM0.5 26.9039V54.9998H27.2968V15.1606L25.6302 15.8545C25.0648 16.1294 24.5426 16.3303 24.0052 16.5886C23.7364 16.7178 23.4887 16.7982 23.2107 16.9181C22.9187 17.044 22.7096 17.1723 22.3664 17.3093C21.6889 17.5798 21.323 17.79 20.6455 18.0604C20.3245 18.1886 20.1791 18.2818 19.879 18.417L3.90493 25.4756C3.32456 25.7251 2.86708 25.936 2.25113 26.1819C1.65602 26.4195 1.13 26.7619 0.500063 26.9037L0.5 26.9039Z" fill="white" fill-opacity="0.8"/>
<path fill-rule="evenodd" clip-rule="evenodd" d="M29.9082 55.0001H43.0795V19.3314L36.5103 17.1206C35.4803 16.7474 34.3433 16.3677 33.245 15.9965C32.6066 15.7807 30.3602 14.9778 29.9082 14.9414V55.0001Z" fill="white" fill-opacity="0.8"/>
</svg>
