<svg width="80" height="80" viewBox="0 0 80 80" fill="none" xmlns="http://www.w3.org/2000/svg">
<path d="M55.0001 27.1999H25.0001C23.6194 27.1999 22.5001 28.3192 22.5001 29.6999C22.5001 31.0806 23.6194 32.1999 25.0001 32.1999H55.0001C56.3808 32.1999 57.5001 31.0806 57.5001 29.6999C57.5001 28.3192 56.3808 27.1999 55.0001 27.1999Z" fill="white"/>
<path fill-rule="evenodd" clip-rule="evenodd" d="M56.3001 11.8999H56.6668C65.8715 11.8999 73.3334 19.3618 73.3334 28.5666V58.5666C73.3334 67.7713 65.8715 75.2332 56.6668 75.2332H23.3334C18.9131 75.2332 14.6739 73.4773 11.5483 70.3517C8.4227 67.2261 6.66675 62.9869 6.66675 58.5666V28.5666C6.66675 19.3618 14.1287 11.8999 23.3334 11.8999H23.6334V5.83325C23.6334 4.45254 24.7527 3.33325 26.1334 3.33325C27.5141 3.33325 28.6334 4.45254 28.6334 5.83325V11.8999H51.3001V5.83325C51.3001 4.45254 52.4194 3.33325 53.8001 3.33325C55.1808 3.33325 56.3001 4.45254 56.3001 5.83325V11.8999ZM56.6668 70.2332C63.1101 70.2332 68.3334 65.0099 68.3334 58.5666V28.5666C68.3334 22.1233 63.1101 16.8999 56.6668 16.8999H23.3334C16.8901 16.8999 11.6667 22.1233 11.6667 28.5666V58.5666C11.6667 65.0099 16.8901 70.2332 23.3334 70.2332H56.6668Z" fill="white"/>
</svg>
