<svg width="80" height="80" viewBox="0 0 80 80" fill="none" xmlns="http://www.w3.org/2000/svg">
<g clip-path="url(#clip0_73_19319)">
<path d="M64.0999 50.8668L55.6332 49.9001C53.5999 49.6668 51.5999 50.3668 50.1666 51.8001L44.0332 57.9334C34.5999 53.1334 26.8666 45.4334 22.0666 35.9668L28.2332 29.8001C29.6666 28.3668 30.3666 26.3668 30.1332 24.3334L29.1666 15.9334C28.7666 12.5668 25.9332 10.0334 22.5332 10.0334H16.7666C12.9999 10.0334 9.86656 13.1668 10.0999 16.9334C11.8666 45.4001 34.6332 68.1334 63.0666 69.9001C66.8332 70.1334 69.9666 67.0001 69.9666 63.2334V57.4668C69.9999 54.1001 67.4666 51.2668 64.0999 50.8668Z" fill="white"/>
</g>
<defs>
<clipPath id="clip0_73_19319">
<rect width="80" height="80" fill="white"/>
</clipPath>
</defs>
</svg>
