<svg width="80" height="80" viewBox="0 0 80 80" fill="none" xmlns="http://www.w3.org/2000/svg">
<g clip-path="url(#clip0_73_19338)">
<path d="M39.9999 50.6666C45.891 50.6666 50.6666 45.891 50.6666 39.9999C50.6666 34.1089 45.891 29.3333 39.9999 29.3333C34.1089 29.3333 29.3333 34.1089 29.3333 39.9999C29.3333 45.891 34.1089 50.6666 39.9999 50.6666Z" fill="white"/>
<path d="M66.6668 13.3334H56.1001L51.9668 8.83341C50.7334 7.46675 48.9334 6.66675 47.0667 6.66675H32.9334C31.0667 6.66675 29.2667 7.46675 28.0001 8.83341L23.9001 13.3334H13.3334C9.66675 13.3334 6.66675 16.3334 6.66675 20.0001V60.0001C6.66675 63.6667 9.66675 66.6667 13.3334 66.6667H66.6668C70.3334 66.6667 73.3334 63.6667 73.3334 60.0001V20.0001C73.3334 16.3334 70.3334 13.3334 66.6668 13.3334ZM40.0001 56.6667C30.8001 56.6667 23.3334 49.2001 23.3334 40.0001C23.3334 30.8001 30.8001 23.3334 40.0001 23.3334C49.2001 23.3334 56.6668 30.8001 56.6668 40.0001C56.6668 49.2001 49.2001 56.6667 40.0001 56.6667Z" fill="white"/>
</g>
<defs>
<clipPath id="clip0_73_19338">
<rect width="80" height="80" fill="white"/>
</clipPath>
</defs>
</svg>
