<svg width="32" height="32" viewBox="0 0 32 32" fill="none" xmlns="http://www.w3.org/2000/svg">
<g clip-path="url(#clip0_339_500)">
<path d="M15.9998 2.6665C8.63984 2.6665 2.6665 8.63984 2.6665 15.9998C2.6665 23.3598 8.63984 29.3332 15.9998 29.3332C23.3598 29.3332 29.3332 23.3598 29.3332 15.9998C29.3332 8.63984 23.3598 2.6665 15.9998 2.6665ZM12.3865 21.7198L7.59984 16.9332C7.07984 16.4132 7.07984 15.5732 7.59984 15.0532C8.11984 14.5332 8.95984 14.5332 9.47984 15.0532L13.3332 18.8932L22.5065 9.71984C23.0265 9.19984 23.8665 9.19984 24.3865 9.71984C24.9065 10.2398 24.9065 11.0798 24.3865 11.5998L14.2665 21.7198C13.7598 22.2398 12.9065 22.2398 12.3865 21.7198Z" fill="#254EF0"/>
</g>
<defs>
<clipPath id="clip0_339_500">
<rect width="32" height="32" fill="white"/>
</clipPath>
</defs>
</svg>
