<svg width="72" height="55" viewBox="0 0 72 55" fill="none" xmlns="http://www.w3.org/2000/svg">
<path fill-rule="evenodd" clip-rule="evenodd" d="M10.3458 34.2782V49.3588C10.3458 52.2041 13.7043 54.9996 18.2501 54.9996H29.0665C29.386 54.9996 29.4825 54.9196 29.4825 54.6543V39.9191H42.5176V54.6543C42.5176 54.9196 42.614 54.9996 42.9335 54.9996H53.7499C55.8402 54.9996 57.6888 54.5252 59.192 53.4161C60.2697 52.621 61.6542 50.98 61.6542 49.3588V34.2782C61.6542 33.4899 59.6855 32.1259 58.7768 31.3714L38.0457 14.1608C35.6366 12.1419 34.6073 13.6192 32.3598 15.485L11.6284 32.6953C11.1605 33.0835 10.3457 33.5851 10.3457 34.2782L10.3458 34.2782Z" fill="white" fill-opacity="0.8"/>
<path fill-rule="evenodd" clip-rule="evenodd" d="M0.5 26.911C0.5 29.1399 2.24299 30.5948 4.10547 30.5948C6.82542 30.5948 7.241 29.8913 9.4097 28.0909L33.6772 7.94508C35.6488 6.3082 36.3512 6.3082 38.3228 7.94508C41.9008 10.9157 63.4274 28.941 64.565 29.675C65.8839 30.526 66.0646 30.5948 67.8945 30.5948C69.757 30.5948 71.5 29.1399 71.5 26.911C71.5 25.4179 69.5447 24.1942 68.5533 23.3711L60.3715 16.5792C59.099 15.5354 59.5742 15.6137 59.5742 12.6362C59.5742 10.6408 59.5736 8.64537 59.5742 6.64999C59.5746 5.41945 59.6364 4.90623 59.1151 4.03804C57.6553 1.60679 53.7104 1.71847 52.1637 3.60634C51.0444 4.97248 51.3926 6.91688 51.3926 9.06754C50.812 8.74481 46.3524 4.94093 45.4644 4.20373C43.0432 2.1937 42.1635 1.04058 38.4434 0.247093C34.9152 -0.50538 31.3408 0.578847 29.3203 1.9106C28.4299 2.49751 27.2596 3.60268 26.3971 4.31881L2.8229 23.8891C1.96718 24.5995 0.500152 25.5646 0.500152 26.911H0.5Z" fill="white" fill-opacity="0.8"/>
</svg>
