<svg width="66" height="55" viewBox="0 0 66 55" fill="none" xmlns="http://www.w3.org/2000/svg">
<path fill-rule="evenodd" clip-rule="evenodd" d="M0.500024 54.9999H29.5122C29.5122 45.9677 29.8293 37.0995 29.8293 28.0356H3.35366C3.35366 29.3252 3.16382 30.3214 3.04993 31.4435L0.5 54.9999L0.500024 54.9999Z" fill="white" fill-opacity="0.8"/>
<path fill-rule="evenodd" clip-rule="evenodd" d="M4.14624 21.4286H29.9877L30.1463 0H6.52428C6.23287 1.4089 6.08032 3.72976 5.91917 5.21124L4.14624 21.4286V21.4286Z" fill="white" fill-opacity="0.8"/>
<path fill-rule="evenodd" clip-rule="evenodd" d="M49.9635 32.6786C48.3268 32.6786 47.4747 32.6084 46.2716 31.3014C43.2583 28.0277 45.6003 22.5001 48.8537 22.5001C50.2966 22.5001 51.7702 22.5936 52.8476 24.073C55.8054 28.1344 52.6809 32.6787 49.9635 32.6787L49.9635 32.6786ZM38.5488 28.0358C38.5488 33.3509 47.9862 48.6888 49.4879 49.8215C50.2796 49.1681 54.9085 41.4882 55.7624 39.9247C59.6662 32.7774 62.9611 26.0076 56.9789 19.2409C56.0847 18.2294 55.1203 17.3591 53.9079 16.8072C45.5197 12.9885 38.5488 20.0646 38.5488 28.0358Z" fill="white" fill-opacity="0.8"/>
<path fill-rule="evenodd" clip-rule="evenodd" d="M36.8051 21.4286C39.2606 21.4286 37.9017 22.0038 40.133 18.7484C42.1203 15.8489 45.7332 14.2938 49.2149 13.9763C49.9589 13.9085 52.3522 14.3307 53.0365 14.5746C54.0353 14.9306 55.2533 15.5828 56.0544 16.1753C57.427 17.1907 59.8812 19.556 60.2685 21.4286H62.488C62.488 18.403 60.2685 3.22403 60.2685 0H36.488L36.6466 16.0715C36.6465 18.1053 36.8051 19.5193 36.8051 21.4286V21.4286Z" fill="white" fill-opacity="0.8"/>
<path fill-rule="evenodd" clip-rule="evenodd" d="M36.488 55.0001H65.5002C65.5002 54.0366 65.2683 52.6896 65.1541 51.6399C65.0423 50.6119 64.9433 49.4809 64.7991 48.2898C64.5212 45.9924 64.2898 43.8856 64.06 41.6222C63.8426 39.4799 63.5779 37.0394 63.3289 34.9457L62.6465 28.2144H61.8539C61.7777 32.0682 58.2386 38.8956 56.6848 41.4992L50.5523 51.1989C50.2436 51.6665 49.7693 52.1608 49.6465 52.6787C48.9797 52.4781 48.1067 50.9022 47.6746 50.2569C44.051 44.8442 37.1221 34.2418 37.1221 28.2144H36.1709C36.1709 37.2234 36.488 46.023 36.488 55.0001H36.488Z" fill="white" fill-opacity="0.8"/>
</svg>
