<svg width="66" height="55" viewBox="0 0 66 55" fill="none" xmlns="http://www.w3.org/2000/svg">
<path fill-rule="evenodd" clip-rule="evenodd" d="M15.0996 45.582H50.9004C50.9004 44.7959 48.8537 35.8372 48.6462 34.8778L46.3301 24.1094H41.125V26.8719C44.364 26.8719 44.0661 26.6439 44.2341 27.5637L47.4726 42.8194H18.5273C18.5396 42.2713 18.7864 41.3156 18.9081 40.8103C19.8572 36.8722 20.5935 32.7008 21.5244 28.7062C21.6268 28.2667 21.6656 28.1481 21.7487 27.6724C21.9275 26.6502 21.4651 26.8719 24.875 26.8719V24.1094H19.6699C19.6328 24.5508 19.497 24.8974 19.4041 25.3534C19.3117 25.8073 19.2279 26.2009 19.1122 26.6971C18.8916 27.6438 18.7198 28.5059 18.5392 29.3951L16.2112 40.1518C15.988 41.1834 15.0996 44.7865 15.0996 45.582L15.0996 45.582Z" fill="white" fill-opacity="0.8"/>
<path fill-rule="evenodd" clip-rule="evenodd" d="M32.9998 27.1233C32.6927 26.9008 32.0039 25.8093 31.6945 25.4007L29.2307 21.6846C28.8115 20.9882 28.4904 20.374 28.0729 19.6906C26.9465 17.8469 24.8748 13.3601 24.8748 10.548C24.8748 6.42774 28.5455 2.76257 32.3651 2.76257C34.359 2.76257 35.5978 2.81792 37.3694 3.9657C45.4455 9.19823 38.1323 19.9016 34.0914 25.6916C33.8429 26.0477 33.2598 26.9349 32.9998 27.1233V27.1233ZM32.438 2.69964e-05H33.5497C35.4325 0.0861726 37.2842 0.61209 38.7656 1.58016C45.8626 6.21785 44.3724 13.1131 40.9988 19.8412L39.8323 21.9522C39.4022 22.6515 38.9986 23.3167 38.5931 23.9913C37.8087 25.296 36.8459 26.6755 35.9395 27.8962C35.3179 28.7333 33.6135 31.1119 32.9998 31.5183C32.4531 31.1562 30.4093 28.3779 30.0065 27.8238C29.0362 26.4889 28.2828 25.2942 27.3624 23.9095L24.9576 19.7584C21.5165 13.0526 20.2322 6.0593 27.3103 1.53002C28.7703 0.595838 30.587 0.0853088 32.438 0L32.438 2.69964e-05Z" fill="white" fill-opacity="0.8"/>
<path fill-rule="evenodd" clip-rule="evenodd" d="M9.89455 26.4952C9.89455 27.0945 10.9234 26.8719 12.0528 26.8719C11.799 27.3951 11.587 28.1884 11.3446 28.8085C10.1482 31.8694 8.96059 35.7653 7.7363 38.8012L6.33985 42.8194H0.5V45.582H7.99027C8.42121 45.582 8.90081 43.8183 9.14766 43.0852C10.5828 38.8222 12.5482 33.9244 14.0377 29.5887L15.9883 24.1094H9.89457V26.4952H9.89455Z" fill="white" fill-opacity="0.8"/>
<path fill-rule="evenodd" clip-rule="evenodd" d="M58.0098 45.582H65.5V42.8195H59.6601L58.2637 38.8011C58.0112 38.1749 57.8185 37.5362 57.5555 36.8646L53.9473 26.8719C54.3755 26.8719 54.801 26.8795 55.2278 26.8828C56.3337 26.8913 56.1055 27.1089 56.1055 24.1094H50.0117L57.3214 44.3793C57.4969 44.8322 57.5531 45.582 58.0098 45.582L58.0098 45.582Z" fill="white" fill-opacity="0.8"/>
<path fill-rule="evenodd" clip-rule="evenodd" d="M31.7305 10.7987C31.7305 8.93259 34.2695 8.93259 34.2695 10.7987C34.2695 12.4181 31.7305 12.4181 31.7305 10.7987ZM28.9375 10.2965C28.9375 11.844 29.0639 12.5055 30.1728 13.5952C30.5435 13.9595 30.8819 14.2382 31.3632 14.4269C32.9845 15.0626 34.5684 14.824 35.7641 13.6583C37.5647 11.9031 37.4462 9.22804 35.8278 7.7506C34.2533 6.31323 31.8519 6.3311 30.2397 7.69183C29.7166 8.13331 28.9375 9.37725 28.9375 10.2965Z" fill="white" fill-opacity="0.8"/>
<path fill-rule="evenodd" clip-rule="evenodd" d="M12.6875 20.0912H20.8125V17.3286H12.6875V20.0912Z" fill="white" fill-opacity="0.8"/>
<path fill-rule="evenodd" clip-rule="evenodd" d="M45.1875 20.0912H53.3125V17.3286H45.1875V20.0912Z" fill="white" fill-opacity="0.8"/>
<path fill-rule="evenodd" clip-rule="evenodd" d="M18.0195 54.6232C18.0195 54.9125 18.1079 54.9999 18.4004 54.9999H22.209V52.2373H18.0195V54.6232Z" fill="white" fill-opacity="0.8"/>
<path fill-rule="evenodd" clip-rule="evenodd" d="M1.76953 54.6232C1.76953 54.9125 1.85788 54.9999 2.15041 54.9999H5.95902V52.2373H1.76953V54.6232Z" fill="white" fill-opacity="0.8"/>
<path fill-rule="evenodd" clip-rule="evenodd" d="M9.89453 54.6232C9.89453 54.9125 9.98288 54.9999 10.2754 54.9999H14.084V52.2373H9.89453V54.6232Z" fill="white" fill-opacity="0.8"/>
<path fill-rule="evenodd" clip-rule="evenodd" d="M26.1445 54.6232C26.1445 54.9125 26.2329 54.9999 26.5254 54.9999H30.334V52.2373H26.1445V54.6232Z" fill="white" fill-opacity="0.8"/>
<path fill-rule="evenodd" clip-rule="evenodd" d="M42.3945 54.6232C42.3945 54.9125 42.4829 54.9999 42.7754 54.9999H46.584V52.2373H42.3945V54.6232Z" fill="white" fill-opacity="0.8"/>
<path fill-rule="evenodd" clip-rule="evenodd" d="M50.5195 54.6232C50.5195 54.9125 50.6079 54.9999 50.9004 54.9999H54.709V52.2373H50.5195V54.6232Z" fill="white" fill-opacity="0.8"/>
<path fill-rule="evenodd" clip-rule="evenodd" d="M58.6445 54.6232C58.6445 54.9125 58.7329 54.9999 59.0254 54.9999H62.834V52.2373H58.6445V54.6232Z" fill="white" fill-opacity="0.8"/>
<path fill-rule="evenodd" clip-rule="evenodd" d="M34.2695 54.6232C34.2695 54.9125 34.3579 54.9999 34.6504 54.9999H38.459V52.2373H34.2695V54.6232Z" fill="white" fill-opacity="0.8"/>
</svg>
