<svg width="80" height="80" viewBox="0 0 80 80" fill="none" xmlns="http://www.w3.org/2000/svg">
<g clip-path="url(#clip0_73_19342)">
<path d="M40.0001 6.66675C21.6001 6.66675 6.66675 21.6001 6.66675 40.0001C6.66675 58.4001 21.6001 73.3334 40.0001 73.3334C58.4001 73.3334 73.3334 58.4001 73.3334 40.0001C73.3334 21.6001 58.4001 6.66675 40.0001 6.66675ZM44.7001 60.3001V62.2334C44.7001 64.6668 42.7001 66.6668 40.2668 66.6668H40.2334C37.8001 66.6668 35.8001 64.6668 35.8001 62.2334V60.2334C31.3667 59.3001 27.4334 56.8667 25.7667 52.7668C25.0001 50.9334 26.4334 48.9001 28.4334 48.9001H29.2334C30.4668 48.9001 31.4667 49.7334 31.9334 50.9001C32.9001 53.4001 35.4334 55.1334 40.3001 55.1334C46.8334 55.1334 48.3001 51.8667 48.3001 49.8334C48.3001 47.0667 46.8334 44.4668 39.4001 42.7001C31.1334 40.7001 25.4667 37.3001 25.4667 30.4668C25.4667 24.7334 30.1001 21.0001 35.8334 19.7667V17.7667C35.8334 15.3334 37.8334 13.3334 40.2668 13.3334H40.3001C42.7334 13.3334 44.7334 15.3334 44.7334 17.7667V19.8334C49.3334 20.9667 52.2334 23.8334 53.5001 27.3667C54.1667 29.2001 52.7668 31.1334 50.8001 31.1334H49.9334C48.7001 31.1334 47.7001 30.2668 47.3667 29.0667C46.6001 26.5334 44.5001 24.9001 40.3001 24.9001C35.3001 24.9001 32.3001 27.1667 32.3001 30.3667C32.3001 33.1667 34.4667 35.0001 41.2001 36.7334C47.9334 38.4668 55.1334 41.3668 55.1334 49.7668C55.0668 55.8668 50.5001 59.2001 44.7001 60.3001Z" fill="white"/>
</g>
<defs>
<clipPath id="clip0_73_19342">
<rect width="80" height="80" fill="white"/>
</clipPath>
</defs>
</svg>
