<svg width="64" height="64" viewBox="0 0 64 64" fill="none" xmlns="http://www.w3.org/2000/svg">
<rect width="64" height="64" rx="10" fill="#CED8FF"/>
<g clip-path="url(#clip0_347_835)">
<path d="M45.3849 47.057L45.3762 47.0564L45.3674 47.0561C45.2722 47.0529 45.181 47.0175 45.1086 46.9556C45.0408 46.8978 44.9934 46.8199 44.9728 46.7336C44.9578 46.5827 44.9462 46.4566 44.9462 46.3342V29.6917C44.9462 29.5587 44.9451 29.4162 44.927 29.2931C44.9086 29.1677 44.8626 28.9827 44.708 28.832C44.5555 28.6833 44.3713 28.6404 44.2478 28.6231C44.1244 28.6059 43.9807 28.6047 43.8433 28.6047H20.2201C20.0793 28.6047 19.9318 28.6059 19.8055 28.6238C19.6781 28.6419 19.4906 28.6868 19.3371 28.8404C19.1835 28.9939 19.1386 29.1814 19.1205 29.3088C19.1026 29.4351 19.1014 29.5826 19.1014 29.7234V46.3025V46.3234L19.1031 46.3442C19.1088 46.4115 19.1088 46.4791 19.1031 46.5464L19.1025 46.5541L19.1021 46.5618C19.0913 46.7677 19.0279 46.8804 18.9644 46.9424C18.9019 47.0035 18.7882 47.0653 18.579 47.0717H17.2534C16.8709 47.0717 16.74 46.9938 16.6907 46.9445C16.6414 46.8952 16.5635 46.7643 16.5635 46.3818C16.5635 44.1833 16.5652 41.9826 16.567 39.7811C16.5705 35.3756 16.5741 30.9668 16.5635 26.5657C16.5635 26.2575 16.6222 26.029 16.7221 25.8503C16.8211 25.6732 16.9793 25.5114 17.2329 25.3656L17.2329 25.3656L17.2363 25.3637L31.3562 17.0979L31.3693 17.0903L31.3819 17.0818C31.5765 16.9514 31.8055 16.8818 32.0397 16.8818C32.2739 16.8818 32.5028 16.9514 32.6974 17.0818L32.7098 17.0901L32.7226 17.0976L46.3191 25.0778L46.319 25.0778L46.3254 25.0814C46.8995 25.4073 47.29 25.6534 47.4841 26.0789V46.7585C47.4112 46.8916 47.3321 46.9626 47.256 47.0044C47.1599 47.057 47.0152 47.0919 46.7871 47.0734C46.4662 47.0473 46.2107 47.0519 45.9874 47.058C45.9683 47.0585 45.9496 47.0591 45.9312 47.0596C45.7316 47.0652 45.5689 47.0697 45.3849 47.057Z" stroke="black"/>
<path d="M23.041 39.1259L23.0436 39.1136L23.0456 39.1013C23.1286 38.5964 23.2491 38.0984 23.4062 37.6114C23.4238 37.5625 23.4465 37.4941 23.4593 37.4196C23.4735 37.3368 23.4811 37.2161 23.4353 37.0837C23.3388 36.805 23.0897 36.6958 22.9697 36.6497L22.9602 36.646L22.9506 36.6428C22.7932 36.5895 22.6544 36.4919 22.5511 36.3618L22.1641 36.6692L22.5511 36.3618C22.4477 36.2316 22.384 36.0745 22.3676 35.9091L22.3677 35.909L22.3667 35.9003C22.328 35.569 22.4358 35.3698 22.5751 35.2595C22.7247 35.141 22.9963 35.0584 23.3958 35.1454C23.4013 35.1466 23.4068 35.1479 23.4124 35.1491C23.519 35.1733 23.6352 35.1995 23.7356 35.2109C23.8458 35.2233 24.0176 35.2292 24.1919 35.1381C24.3637 35.0482 24.4577 34.9058 24.5111 34.811C24.5608 34.7226 24.6086 34.6121 24.6536 34.5082C24.6561 34.5025 24.6586 34.4968 24.661 34.4912C24.7184 34.3588 24.7783 34.1981 24.8381 34.0377L24.8396 34.0337L24.8408 34.0305C24.9025 33.8648 24.9674 33.6908 25.0397 33.5141C25.1878 33.1525 25.3531 32.8165 25.5466 32.5715C25.7382 32.3287 26.0732 32.0367 26.4889 31.8067C26.7708 31.6508 27.0736 31.5323 27.3768 31.4724C27.1414 31.5344 26.916 31.6337 26.7095 31.7675L26.9814 32.1871L26.7095 31.7675C26.3211 32.0193 26.0174 32.3819 25.8377 32.8084C25.403 33.7795 25.0078 34.7762 24.621 35.7519C24.5803 35.8546 24.5396 35.9571 24.499 36.0593L24.496 36.067L24.4932 36.0749C24.3464 36.4836 24.3429 36.9227 24.5861 37.2856C24.8252 37.6425 25.2268 37.8112 25.645 37.852L25.6692 37.8543H25.6936H32.0237H34.4511C34.8584 37.8543 35.2698 37.8561 35.6829 37.8578C36.5148 37.8614 37.3541 37.8649 38.1828 37.8543C38.6681 37.8537 39.1453 37.7103 39.4294 37.3228C39.7215 36.9245 39.6955 36.427 39.5162 35.9788C39.4649 35.8505 39.4135 35.7217 39.362 35.5926C39.0019 34.6906 38.6353 33.7723 38.2443 32.8782C38.0673 32.4354 37.7602 32.0567 37.3634 31.7921C37.1109 31.6239 36.8298 31.5068 36.5359 31.4457C37.0331 31.4947 37.455 31.6477 37.8095 31.8881C38.2366 32.1777 38.5936 32.6131 38.8638 33.2082C39.0817 33.7221 39.2849 34.2377 39.4893 34.7724L39.4892 34.7724L39.4921 34.7795C39.536 34.8892 39.6337 35.0954 39.8658 35.2025C40.0951 35.3083 40.3182 35.2541 40.4476 35.2109L40.4577 35.2076L40.4677 35.2038C40.6559 35.1319 40.8556 35.0947 41.057 35.0938C41.5429 35.1166 41.8617 35.5828 41.6376 36.1124L41.6376 36.1124L41.6346 36.1196C41.5841 36.2445 41.5078 36.3574 41.4108 36.4508C41.3165 36.5416 41.2047 36.6121 41.0822 36.658C40.984 36.6884 40.7686 36.7665 40.6478 36.988C40.5167 37.2283 40.5852 37.4675 40.6265 37.5825C41.0771 38.9217 41.2166 40.3339 41.1857 41.786L41.1857 41.7883C41.175 42.4288 41.1786 43.081 41.1821 43.7243C41.1839 44.042 41.1856 44.3574 41.1856 44.6682C41.1856 45.0302 41.0628 45.3363 40.8627 45.5499C40.666 45.7598 40.3696 45.9074 39.9647 45.9134L39.9647 45.9133L39.9532 45.9137C39.7058 45.9231 39.4581 45.9059 39.2144 45.8626C38.9649 45.7876 38.7858 45.6531 38.663 45.4769C38.5339 45.2918 38.4478 45.0323 38.4414 44.6905C38.441 44.6721 38.4407 44.654 38.4403 44.636C38.4372 44.4624 38.4344 44.3071 38.4216 44.1912C38.4109 44.0948 38.3802 43.8191 38.1339 43.6529C38.0166 43.5737 37.8976 43.5528 37.8216 43.5463C37.7485 43.5399 37.6771 43.5442 37.6305 43.5474C37.6053 43.5491 37.581 43.551 37.5567 43.5529C37.4771 43.5591 37.3982 43.5653 37.291 43.5653H26.4234C26.342 43.5653 26.2434 43.5695 26.1451 43.5918C26.0436 43.6148 25.9114 43.6639 25.7981 43.7772C25.5667 44.0086 25.5932 44.3181 25.6095 44.4569C25.6218 44.5615 25.6213 44.6248 25.6185 44.6815C25.618 44.6927 25.6169 44.7085 25.6157 44.7276C25.6122 44.7804 25.607 44.8583 25.6062 44.9342C25.5868 45.178 25.4832 45.4077 25.3129 45.5837C25.1395 45.763 24.9082 45.8751 24.66 45.9L24.6592 45.9001C24.3817 45.9283 24.1021 45.9283 23.8246 45.9001L23.8246 45.9L23.8197 45.8996C23.5608 45.8757 23.3197 45.7571 23.1429 45.5664C22.967 45.3766 22.867 45.1287 22.8619 44.87V42.5898C22.8619 42.3819 22.8601 42.1768 22.8584 41.9742C22.8501 40.9801 22.8422 40.045 23.041 39.1259ZM25.2017 39.1072H25.1845L25.1673 39.1084C24.8698 39.1289 24.5602 39.2164 24.3246 39.452C24.0861 39.6905 23.9986 40.0053 23.9881 40.3203L23.9878 40.3287V40.337V41.2254V41.2446L23.9893 41.2638C24.0109 41.5455 24.1017 41.8344 24.3076 42.0591C24.5206 42.2914 24.8115 42.4052 25.1282 42.4076C26.0097 42.4395 26.8734 42.4394 27.7335 42.4234L27.7336 42.4235L27.7428 42.4232C28.0544 42.4116 28.3573 42.3085 28.5805 42.0653C28.7977 41.8287 28.8797 41.5241 28.8903 41.2274C28.9013 40.9187 28.8974 40.7456 28.8938 40.5881C28.8922 40.5156 28.8906 40.4464 28.8906 40.3687C28.8906 40.1055 28.788 39.8083 28.5932 39.5702C28.3868 39.3179 28.0659 39.1202 27.6442 39.1074L27.6367 39.1072H27.6291H26.4234H25.2017ZM36.3232 39.1072H36.306L36.2888 39.1084C35.9921 39.1288 35.6816 39.2163 35.45 39.4561C35.2188 39.6954 35.1433 40.0059 35.1411 40.3071C35.1251 40.6177 35.1251 40.929 35.1411 41.2396C35.1435 41.5321 35.2222 41.8347 35.4421 42.0703C35.668 42.3125 35.9761 42.412 36.2895 42.4232L36.2895 42.4233L36.2979 42.4234C37.1451 42.4394 38.008 42.4394 38.8709 42.4234L38.8709 42.4235L38.8801 42.4232C39.1905 42.4117 39.4961 42.309 39.7188 42.062C39.9367 41.8203 40.0121 41.5101 40.0121 41.2096V41.207V41.2044V41.2018V41.1992V41.1967V41.1941V41.1915V41.189V41.1865V41.1839V41.1814V41.1789V41.1764V41.1739V41.1714V41.1689V41.1664V41.1639V41.1615V41.159V41.1566V41.1541V41.1517V41.1493V41.1468V41.1444V41.142V41.1396V41.1372V41.1348V41.1324V41.1301V41.1277V41.1253V41.123V41.1206V41.1183V41.116V41.1136V41.1113V41.109V41.1067V41.1044V41.1021V41.0998V41.0975V41.0953V41.093V41.0908V41.0885V41.0863V41.084V41.0818V41.0795V41.0773V41.0751V41.0729V41.0707V41.0685V41.0663V41.0641V41.062V41.0598V41.0576V41.0555V41.0533V41.0512V41.049V41.0469V41.0448V41.0426V41.0405V41.0384V41.0363V41.0342V41.0321V41.03V41.028V41.0259V41.0238V41.0218V41.0197V41.0176V41.0156V41.0136V41.0115V41.0095V41.0075V41.0055V41.0034V41.0014V40.9994V40.9974V40.9955V40.9935V40.9915V40.9895V40.9876V40.9856V40.9836V40.9817V40.9797V40.9778V40.9759V40.9739V40.972V40.9701V40.9682V40.9663V40.9644V40.9625V40.9606V40.9587V40.9568V40.9549V40.953V40.9512V40.9493V40.9475V40.9456V40.9438V40.9419V40.9401V40.9382V40.9364V40.9346V40.9328V40.931V40.9291V40.9273V40.9255V40.9237V40.9219V40.9202V40.9184V40.9166V40.9148V40.9131V40.9113V40.9095V40.9078V40.906V40.9043V40.9025V40.9008V40.8991V40.8973V40.8956V40.8939V40.8922V40.8905V40.8888V40.887V40.8853V40.8837V40.882V40.8803V40.8786V40.8769V40.8752V40.8736V40.8719V40.8702V40.8686V40.8669V40.8653V40.8636V40.862V40.8603V40.8587V40.8571V40.8554V40.8538V40.8522V40.8506V40.849V40.8473V40.8457V40.8441V40.8425V40.8409V40.8393V40.8378V40.8362V40.8346V40.833V40.8314V40.8299V40.8283V40.8267V40.8252V40.8236V40.8221V40.8205V40.819V40.8174V40.8159V40.8143V40.8128V40.8113V40.8097V40.8082V40.8067V40.8052V40.8036V40.8021V40.8006V40.7991V40.7976V40.7961V40.7946V40.7931V40.7916V40.7901V40.7886V40.7871V40.7856V40.7842V40.7827V40.7812V40.7797V40.7783V40.7768V40.7753V40.7739V40.7724V40.771V40.7695V40.768V40.7666V40.7651V40.7637V40.7623V40.7608V40.7594V40.7579V40.7565V40.7551V40.7536V40.7522V40.7508V40.7494V40.7479V40.7465V40.7451V40.7437V40.7423V40.7409V40.7395V40.7381V40.7367V40.7353V40.7339V40.7325V40.7311V40.7297V40.7283V40.7269V40.7255V40.7241V40.7227V40.7213V40.7199V40.7186V40.7172V40.7158V40.7144V40.7131V40.7117V40.7103V40.7089V40.7076V40.7062V40.7048V40.7035V40.7021V40.7007V40.6994V40.698V40.6967V40.6953V40.694V40.6926V40.6912V40.6899V40.6885V40.6872V40.6858V40.6845V40.6832V40.6818V40.6805V40.6791V40.6778V40.6764V40.6751V40.6738V40.6724V40.6711V40.6697V40.6684V40.6671V40.6657V40.6644V40.6631V40.6617V40.6604V40.6591V40.6577V40.6564V40.6551V40.6538V40.6524V40.6511V40.6498V40.6484V40.6471V40.6458V40.6445V40.6431V40.6418V40.6405V40.6392V40.6378V40.6365V40.6352V40.6339V40.6326V40.6312V40.6299V40.6286V40.6273V40.6259V40.6246V40.6233V40.622V40.6207V40.6193V40.618V40.6167V40.6154V40.614V40.6127V40.6114V40.6101V40.6088V40.6074V40.6061V40.6048V40.6035V40.6021V40.6008V40.5995V40.5982V40.5968V40.5955V40.5942V40.5929V40.5915V40.5902V40.5889V40.5875V40.5862V40.5849V40.5836V40.5822V40.5809V40.5796V40.5782V40.5769V40.5756V40.5742V40.5729V40.5715V40.5702V40.5689V40.5675V40.5662V40.5648V40.5635V40.5622V40.5608V40.5595V40.5581V40.5568V40.5554V40.5541V40.5527V40.5514V40.55V40.5487V40.5473V40.5459V40.5446V40.5432V40.5419V40.5405V40.5391V40.5378V40.5364V40.535V40.5337V40.5323V40.5309V40.5295V40.5282V40.5268V40.5254V40.524V40.5226V40.5213V40.5199V40.5185V40.5171V40.5157V40.5143V40.5129V40.5115V40.5101V40.5087V40.5073V40.5059V40.5045V40.5031V40.5017V40.5003V40.4988V40.4974V40.496V40.4946V40.4932V40.4917V40.4903V40.4889V40.4875V40.486V40.4846V40.4831V40.4817V40.4803V40.4788V40.4774V40.4759V40.4745V40.473V40.4716V40.4701V40.4686V40.4672V40.4657V40.4642V40.4628V40.4613V40.4598V40.4583V40.4568V40.4553V40.4539V40.4524V40.4509V40.4494V40.4479V40.4464V40.4449V40.4434V40.4418V40.4403V40.4388V40.4373V40.4358V40.4342V40.4327V40.4312V40.4296V40.4281V40.4266V40.425V40.4235V40.4219V40.4204V40.4188V40.4172V40.4157V40.4141V40.4125V40.4109V40.4094V40.4078V40.4062V40.4046V40.403V40.4014V40.3998V40.3982V40.3966V40.395V40.3934V40.3918V40.3902V40.3885V40.3869V40.3853V40.3836V40.382V40.3803V40.3787V40.377V40.3754V40.3737V40.3721V40.3704V40.3687C40.0121 40.1134 39.9185 39.816 39.7231 39.5732C39.5153 39.3152 39.1917 39.12 38.7653 39.1074L38.7579 39.1072H38.7506H37.5765H36.3232Z" fill="black" stroke="black"/>
<path d="M26.4233 39.6074H27.6291C28.1526 39.6233 28.3748 39.8454 28.3906 40.3689C28.4065 40.8925 28.4065 40.9401 28.3906 41.2098C28.3748 41.4795 28.1526 41.9079 27.7243 41.9237C26.8676 41.9396 26.0108 41.9396 25.1383 41.9079C24.7416 41.9079 24.5195 41.6382 24.4878 41.2257V40.3372C24.5037 39.8613 24.7416 39.6392 25.2017 39.6074H26.4233Z" fill="black"/>
<path d="M37.5764 39.6074H38.7504C39.2898 39.6233 39.5119 39.8454 39.5119 40.3689C39.5119 40.8925 39.5278 40.9242 39.5119 41.2098C39.496 41.4954 39.2898 41.9079 38.8614 41.9237C38.0047 41.9396 37.148 41.9396 36.3071 41.9237C35.8629 41.9079 35.6408 41.654 35.6408 41.2257C35.6249 40.9244 35.6249 40.6226 35.6408 40.3214C35.6408 39.8613 35.8629 39.6392 36.323 39.6074H37.5764Z" fill="black"/>
</g>
<defs>
<clipPath id="clip0_347_835">
<rect width="32" height="32" fill="white" transform="translate(16 16)"/>
</clipPath>
</defs>
</svg>
