<svg width="64" height="64" viewBox="0 0 64 64" fill="none" xmlns="http://www.w3.org/2000/svg">
<rect width="64" height="64" rx="10" fill="#CED8FF"/>
<path d="M39.6667 48H23.6667C23.4987 48 23.337 47.9366 23.2138 47.8225C23.0906 47.7085 23.0149 47.5521 23.002 47.3847L21.7133 30.6307C19.0633 30.3227 17 28.0647 17 25.3333C17 22.3873 19.452 19.8993 22.3547 19.8993C22.9613 19.8993 23.5567 20.0173 24.112 20.246C25.048 17.6727 27.9593 16 31.6667 16C35.1493 16 37.5853 17.408 39.0933 20.3C39.6866 20.0351 40.329 19.8984 40.9787 19.8987C43.8813 19.8993 46.3333 22.3873 46.3333 25.3333C46.3333 28.0647 44.27 30.3227 41.62 30.6307L40.3313 47.3847C40.3184 47.5521 40.2428 47.7085 40.1195 47.8225C39.9963 47.9366 39.8346 48 39.6667 48ZM24.284 46.6667H39.0487L40.3347 29.9487C40.362 29.6013 40.652 29.3333 41 29.3333C43.206 29.3333 45 27.5393 45 25.3333C45 22.9167 42.8807 21.2327 40.9787 21.2327C40.324 21.2327 39.7127 21.4153 39.1627 21.7773C39.0818 21.8306 38.9902 21.8656 38.8944 21.8799C38.7985 21.8942 38.7007 21.8874 38.6078 21.8599C38.5149 21.8325 38.429 21.7851 38.3563 21.7211C38.2836 21.6571 38.2257 21.578 38.1867 21.4893C36.932 18.654 34.8607 17.3333 31.6667 17.3333C28.2287 17.3333 25.6273 18.9433 25.1933 21.3393C25.174 21.4479 25.1279 21.5499 25.0593 21.6362C24.9907 21.7226 24.9018 21.7905 24.8004 21.8339C24.6991 21.8774 24.5886 21.8949 24.4787 21.885C24.3689 21.8752 24.2633 21.8382 24.1713 21.7773C23.6336 21.4194 23.0013 21.2297 22.3553 21.2327C20.4527 21.2327 18.3333 22.9167 18.3333 25.3333C18.3333 27.5393 20.1273 29.3333 22.3333 29.3333C22.5013 29.3333 22.663 29.3967 22.7862 29.5108C22.9094 29.6249 22.9851 29.7812 22.998 29.9487L24.284 46.6667Z" fill="black"/>
<path d="M40.083 42.6668H23.2497C23.0729 42.6668 22.9033 42.5966 22.7783 42.4716C22.6532 42.3465 22.583 42.177 22.583 42.0002C22.583 41.8234 22.6532 41.6538 22.7783 41.5288C22.9033 41.4037 23.0729 41.3335 23.2497 41.3335H40.083C40.2598 41.3335 40.4294 41.4037 40.5544 41.5288C40.6794 41.6538 40.7497 41.8234 40.7497 42.0002C40.7497 42.177 40.6794 42.3465 40.5544 42.4716C40.4294 42.5966 40.2598 42.6668 40.083 42.6668Z" fill="black"/>
<path d="M28.3332 42.6665C28.1564 42.6665 27.9868 42.5963 27.8618 42.4712C27.7367 42.3462 27.6665 42.1766 27.6665 41.9998V36.6665C27.6665 36.4897 27.7367 36.3201 27.8618 36.1951C27.9868 36.0701 28.1564 35.9998 28.3332 35.9998C28.51 35.9998 28.6796 36.0701 28.8046 36.1951C28.9296 36.3201 28.9998 36.4897 28.9998 36.6665V41.9998C28.9998 42.1766 28.9296 42.3462 28.8046 42.4712C28.6796 42.5963 28.51 42.6665 28.3332 42.6665ZM31.6665 42.6665C31.4897 42.6665 31.3201 42.5963 31.1951 42.4712C31.0701 42.3462 30.9998 42.1766 30.9998 41.9998V35.3332C30.9998 35.1564 31.0701 34.9868 31.1951 34.8618C31.3201 34.7367 31.4897 34.6665 31.6665 34.6665C31.8433 34.6665 32.0129 34.7367 32.1379 34.8618C32.2629 34.9868 32.3332 35.1564 32.3332 35.3332V41.9998C32.3332 42.1766 32.2629 42.3462 32.1379 42.4712C32.0129 42.5963 31.8433 42.6665 31.6665 42.6665ZM34.9998 42.6665C34.823 42.6665 34.6535 42.5963 34.5284 42.4712C34.4034 42.3462 34.3332 42.1766 34.3332 41.9998V36.6665C34.3332 36.4897 34.4034 36.3201 34.5284 36.1951C34.6535 36.0701 34.823 35.9998 34.9998 35.9998C35.1766 35.9998 35.3462 36.0701 35.4712 36.1951C35.5963 36.3201 35.6665 36.4897 35.6665 36.6665V41.9998C35.6665 42.1766 35.5963 42.3462 35.4712 42.4712C35.3462 42.5963 35.1766 42.6665 34.9998 42.6665Z" fill="black"/>
</svg>
