<svg width="64" height="64" viewBox="0 0 64 64" fill="none" xmlns="http://www.w3.org/2000/svg">
<rect width="64" height="64" rx="10" fill="#CED8FF"/>
<g clip-path="url(#clip0_347_821)">
<path d="M48 30.2132C48 29.431 47.7333 28.7732 47.2 28.2399C46.6667 27.7066 46.0089 27.4399 45.2267 27.4399H21.0133V18.7999C21.0133 18.0888 21.2622 17.4843 21.76 16.9866C22.1156 16.631 22.5244 16.4177 22.9867 16.3466C23.4489 16.2755 23.9289 16.311 24.4267 16.4532C23.7867 17.4488 23.5378 18.551 23.68 19.7599C23.8222 20.9688 24.32 21.9999 25.1733 22.8532L25.3867 23.1732C25.6 23.3155 25.8311 23.3866 26.08 23.3866C26.3289 23.3866 26.5244 23.3155 26.6667 23.1732L32.7467 17.0932C32.96 16.8799 33.0667 16.6488 33.0667 16.3999C33.0667 16.151 32.96 15.9199 32.7467 15.7066L32.5333 15.4932C31.6089 14.5688 30.4889 14.071 29.1733 13.9999C27.8578 13.9288 26.7022 14.2843 25.7067 15.0666C24.8533 14.5688 23.9289 14.3732 22.9333 14.4799C21.9378 14.5866 21.0844 14.9955 20.3733 15.7066C19.52 16.5599 19.0933 17.591 19.0933 18.7999V27.4399H18.7733C17.9911 27.4399 17.3333 27.7066 16.8 28.2399C16.2667 28.7732 16 29.431 16 30.2132C16 30.8532 16.1778 31.4043 16.5333 31.8666C16.8889 32.3288 17.3156 32.6666 17.8133 32.8799V34.9066C17.8133 36.6132 18.2756 38.1777 19.2 39.5999C20.1244 41.0221 21.2978 42.1243 22.72 42.9066L21.8667 44.6132C21.7244 44.8977 21.7067 45.1466 21.8133 45.3599C21.92 45.5732 22.08 45.751 22.2933 45.8932C22.5067 46.0355 22.7378 46.0532 22.9867 45.9466C23.2356 45.8399 23.4311 45.6799 23.5733 45.4666L24.5333 43.5466C25.2444 43.6888 25.9911 43.7599 26.7733 43.7599H37.2267C38.0089 43.7599 38.7556 43.6888 39.4667 43.5466L40.4267 45.4666C40.5689 45.6799 40.7644 45.8399 41.0133 45.9466C41.2622 46.0532 41.4933 46.0355 41.7067 45.8932C41.92 45.751 42.08 45.5732 42.1867 45.3599C42.2933 45.1466 42.2756 44.8977 42.1333 44.6132L41.28 42.9066C42.7022 42.1243 43.8756 41.0221 44.8 39.5999C45.7244 38.1777 46.1867 36.6132 46.1867 34.9066V32.8799C46.6844 32.6666 47.1111 32.3288 47.4667 31.8666C47.8222 31.4043 48 30.8532 48 30.2132ZM30.72 16.4532L26.1333 21.1466C25.6356 20.4355 25.4222 19.6888 25.4933 18.9066C25.5644 18.1243 25.8844 17.4488 26.4533 16.8799C27.0222 16.311 27.7156 15.991 28.5333 15.9199C29.3511 15.8488 30.08 16.0266 30.72 16.4532ZM18.7733 29.3599H45.2267C45.44 29.3599 45.6356 29.4488 45.8133 29.6266C45.9911 29.8043 46.08 30.0177 46.08 30.2666C46.08 30.5155 45.9911 30.7288 45.8133 30.9066C45.6356 31.0843 45.44 31.1732 45.2267 31.1732H18.7733C18.56 31.1732 18.3644 31.0843 18.1867 30.9066C18.0089 30.7288 17.92 30.5155 17.92 30.2666C17.92 30.0177 18.0089 29.8043 18.1867 29.6266C18.3644 29.4488 18.56 29.3599 18.7733 29.3599ZM44.2667 34.9066C44.2667 36.1866 43.9467 37.3599 43.3067 38.4266C42.6667 39.4932 41.8133 40.3466 40.7467 40.9866C39.68 41.6266 38.5067 41.9466 37.2267 41.9466H26.7733C25.4933 41.9466 24.32 41.6266 23.2533 40.9866C22.1867 40.3466 21.3333 39.4932 20.6933 38.4266C20.0533 37.3599 19.7333 36.1866 19.7333 34.9066V33.0932H44.2667V34.9066ZM29.5467 23.4932C29.5467 23.7777 29.6356 24.0088 29.8133 24.1866C29.9911 24.3643 30.2044 24.4532 30.4533 24.4532C30.7022 24.4532 30.9156 24.3643 31.0933 24.1866C31.2711 24.0088 31.36 23.7777 31.36 23.4932C31.36 23.2088 31.2711 22.9777 31.0933 22.7999C30.9156 22.6221 30.7022 22.5332 30.4533 22.5332C30.2044 22.5332 29.9911 22.6221 29.8133 22.7999C29.6356 22.9777 29.5467 23.2088 29.5467 23.4932ZM32.2133 20.8266C32.2133 21.111 32.3022 21.3421 32.48 21.5199C32.6578 21.6977 32.8711 21.7866 33.12 21.7866C33.3689 21.7866 33.5822 21.6977 33.76 21.5199C33.9378 21.3421 34.0267 21.111 34.0267 20.8266C34.0267 20.5421 33.9378 20.311 33.76 20.1332C33.5822 19.9555 33.3689 19.8666 33.12 19.8666C32.8711 19.8666 32.6578 19.9555 32.48 20.1332C32.3022 20.311 32.2133 20.5421 32.2133 20.8266ZM32.8533 24.1332C32.8533 24.3466 32.9422 24.5599 33.12 24.7732C33.2978 24.9866 33.5111 25.0932 33.76 25.0932C34.0089 25.0932 34.2222 24.9866 34.4 24.7732C34.5778 24.5599 34.6667 24.3288 34.6667 24.0799C34.6667 23.831 34.5778 23.6177 34.4 23.4399C34.2222 23.2621 34.0089 23.1732 33.76 23.1732C33.5111 23.1732 33.2978 23.2621 33.12 23.4399C32.9422 23.6177 32.8533 23.8488 32.8533 24.1332Z" fill="black"/>
</g>
<defs>
<clipPath id="clip0_347_821">
<rect width="32" height="32" fill="white" transform="matrix(1 0 0 -1 16 46)"/>
</clipPath>
</defs>
</svg>
