<svg width="64" height="64" viewBox="0 0 64 64" fill="none" xmlns="http://www.w3.org/2000/svg">
<rect width="64" height="64" rx="10" fill="#CED8FF"/>
<g clip-path="url(#clip0_347_819)">
<path d="M44.0533 26.0268H29.9733C29.2622 26.0268 28.5867 26.2401 27.9467 26.6668C27.8044 25.6001 27.36 24.729 26.6133 24.0535C25.8667 23.3779 24.9956 23.0401 24 23.0401C23.2178 23.0401 22.5067 23.2179 21.8667 23.5735V21.9735C21.8667 21.689 21.7778 21.4579 21.6 21.2801C21.4222 21.1024 21.1911 21.0135 20.9067 21.0135H16.96C16.6756 21.0135 16.4444 21.1024 16.2667 21.2801C16.0889 21.4579 16 21.689 16 21.9735V42.0268C16 42.3113 16.0889 42.5424 16.2667 42.7201C16.4444 42.8979 16.6756 42.9868 16.96 42.9868H20.9067C21.1911 42.9868 21.4222 42.8979 21.6 42.7201C21.7778 42.5424 21.8667 42.3113 21.8667 42.0268V38.9335H42.1333V42.0268C42.1333 42.3113 42.2222 42.5424 42.4 42.7201C42.5778 42.8979 42.8089 42.9868 43.0933 42.9868H47.04C47.3244 42.9868 47.5556 42.8979 47.7333 42.7201C47.9111 42.5424 48 42.3113 48 42.0268V29.9735C48 28.9068 47.6089 27.9824 46.8267 27.2001C46.0444 26.4179 45.12 26.0268 44.0533 26.0268ZM24 24.8535C24.5689 24.8535 25.0489 25.0668 25.44 25.4935C25.8311 25.9201 26.0267 26.4179 26.0267 26.9868C26.0267 27.5557 25.8311 28.0357 25.44 28.4268C25.0489 28.8179 24.5689 29.0135 24 29.0135C23.4311 29.0135 22.9333 28.8179 22.5067 28.4268C22.08 28.0357 21.8667 27.5557 21.8667 26.9868C21.8667 26.4179 22.08 25.9201 22.5067 25.4935C22.9333 25.0668 23.4311 24.8535 24 24.8535ZM21.8667 30.2935C22.5067 30.7201 23.2 30.9335 23.9467 30.9335C24.6933 30.9335 25.3867 30.7201 26.0267 30.2935V33.0668H21.8667V30.2935ZM46.08 41.0668H43.9467V37.9735C43.9467 37.7601 43.8578 37.5646 43.68 37.3868C43.5022 37.209 43.3067 37.1201 43.0933 37.1201H20.9067C20.6933 37.1201 20.4978 37.209 20.32 37.3868C20.1422 37.5646 20.0533 37.7601 20.0533 37.9735V41.0668H17.92V22.9335H20.0533V34.0268C20.0533 34.2401 20.1422 34.4535 20.32 34.6668C20.4978 34.8801 20.6933 34.9868 20.9067 34.9868H46.08V41.0668ZM46.08 33.0668H27.9467V29.9735C27.9467 29.4046 28.1422 28.9246 28.5333 28.5335C28.9244 28.1424 29.4044 27.9468 29.9733 27.9468H44.0533C44.6222 27.9468 45.1022 28.1424 45.4933 28.5335C45.8844 28.9246 46.08 29.4046 46.08 29.9735V33.0668Z" fill="black"/>
</g>
<defs>
<clipPath id="clip0_347_819">
<rect width="32" height="32" fill="white" transform="matrix(1 0 0 -1 16 48)"/>
</clipPath>
</defs>
</svg>
