<svg width="560" height="437" viewBox="0 0 560 437" fill="none" xmlns="http://www.w3.org/2000/svg">
<path d="M560 384.092H0V384.385H560V384.092Z" fill="#EBEBEB"/>
<path d="M267.008 331.769H50.736C49.0399 331.769 47.4133 331.063 46.2139 329.807C45.0146 328.551 44.3408 326.847 44.3408 325.07V6.64007C44.3556 4.87364 45.0359 3.18483 46.2336 1.94123C47.4314 0.697632 49.0496 -6.77216e-05 50.736 4.93025e-09H267.008C267.848 4.93026e-09 268.679 0.173266 269.455 0.509909C270.231 0.846551 270.936 1.33998 271.53 1.96201C272.124 2.58405 272.595 3.32251 272.916 4.13524C273.238 4.94796 273.403 5.81904 273.403 6.69873V325.07C273.403 325.95 273.238 326.821 272.916 327.634C272.595 328.446 272.124 329.185 271.53 329.807C270.936 330.429 270.231 330.922 269.455 331.259C268.679 331.596 267.848 331.769 267.008 331.769ZM50.736 0.234632C49.1151 0.237733 47.5614 0.913585 46.4152 2.11417C45.269 3.31475 44.6238 4.94219 44.6208 6.64007V325.07C44.6238 326.768 45.269 328.395 46.4152 329.596C47.5614 330.797 49.1151 331.472 50.736 331.476H267.008C268.629 331.472 270.183 330.797 271.329 329.596C272.475 328.395 273.12 326.768 273.123 325.07V6.64007C273.12 4.94219 272.475 3.31475 271.329 2.11417C270.183 0.913585 268.629 0.237733 267.008 0.234632H50.736Z" fill="#EBEBEB"/>
<path d="M509.264 331.769H292.992C291.296 331.769 289.669 331.063 288.47 329.807C287.271 328.551 286.597 326.847 286.597 325.07V6.64007C286.612 4.87364 287.292 3.18483 288.49 1.94123C289.687 0.697632 291.306 -6.77216e-05 292.992 4.93025e-09H509.264C510.96 4.93027e-09 512.587 0.705757 513.786 1.96201C514.985 3.21827 515.659 4.92211 515.659 6.69873V325.07C515.659 326.847 514.985 328.551 513.786 329.807C512.587 331.063 510.96 331.769 509.264 331.769ZM292.992 0.234632C291.371 0.237733 289.817 0.913585 288.671 2.11417C287.525 3.31475 286.88 4.94219 286.877 6.64007V325.07C286.88 326.768 287.525 328.395 288.671 329.596C289.817 330.797 291.371 331.472 292.992 331.476H509.264C510.885 331.472 512.439 330.797 513.585 329.596C514.731 328.395 515.376 326.768 515.379 325.07V6.64007C515.376 4.94219 514.731 3.31475 513.585 2.11417C512.439 0.913585 510.885 0.237733 509.264 0.234632H292.992Z" fill="#EBEBEB"/>
<path d="M560 384.092H0V384.385H560V384.092Z" fill="#EBEBEB"/>
<path d="M503.888 402.967H466.793V403.261H503.888V402.967Z" fill="#EBEBEB"/>
<path d="M370.966 406.159H361.234V406.452H370.966V406.159Z" fill="#EBEBEB"/>
<path d="M465.673 392.081H444.181V392.374H465.673V392.081Z" fill="#EBEBEB"/>
<path d="M107.128 394.052H58.7552V394.345H107.128V394.052Z" fill="#EBEBEB"/>
<path d="M252.168 399.003H147.246V399.296H252.168V399.003Z" fill="#EBEBEB"/>
<path d="M196.804 51.8552C203.662 44.8826 203.824 33.4076 197.168 26.225C190.511 19.0424 179.556 18.8722 172.699 25.8448C165.842 32.8173 165.679 44.2924 172.336 51.475C178.992 58.6575 189.947 58.8278 196.804 51.8552Z" fill="#E0E0E0"/>
<path d="M194.097 55.9578C202.735 51.6767 206.425 40.8707 202.338 31.8221C198.251 22.7734 187.934 18.9086 179.296 23.1897C170.657 27.4709 166.967 38.2768 171.055 47.3255C175.142 56.3741 185.458 60.2389 194.097 55.9578Z" fill="#F0F0F0"/>
<path d="M198.901 44.1455C198.038 46.6734 196.479 48.8764 194.421 50.4762C192.362 52.0759 189.898 53.0004 187.338 53.1328C184.778 53.2652 182.238 52.5995 180.04 51.22C177.841 49.8405 176.082 47.809 174.986 45.3825C173.89 42.9561 173.505 40.2435 173.88 37.5879C174.255 34.9323 175.374 32.453 177.095 30.4633C178.815 28.4737 181.061 27.0632 183.547 26.4102C186.032 25.7571 188.647 25.8909 191.061 26.7945C192.663 27.3946 194.137 28.3193 195.398 29.5161C196.66 30.7128 197.684 32.158 198.412 33.7692C199.14 35.3804 199.557 37.126 199.641 38.9064C199.725 40.6868 199.474 42.467 198.901 44.1455Z" fill="#E6E6E6"/>
<path d="M192.998 43.0544C192.738 42.2516 192.245 41.5542 191.587 41.0601C192.249 40.9784 192.876 40.7013 193.393 40.2609C193.911 39.8206 194.298 39.2352 194.51 38.573C194.708 38.0366 194.774 37.4567 194.701 36.8868C194.629 36.3168 194.421 35.7751 194.096 35.3116C193.491 34.468 192.688 33.8014 191.766 33.3759L192.125 32.3318L190.579 31.7569L190.243 32.7307L188.709 32.1558L189.034 31.1821L187.499 30.5955L187.163 31.5692L183.803 30.3257L178.864 44.7907L182.224 46.0343L181.877 47.0666L183.422 47.6415L183.77 46.6091L185.304 47.1957L184.957 48.2163L186.502 48.7912L186.861 47.7236C188.027 48.1464 189.28 48.2355 190.49 47.9817C191.049 47.8396 191.565 47.5491 191.986 47.1382C192.408 46.7274 192.722 46.2099 192.898 45.6354C193.21 44.8119 193.245 43.9018 192.998 43.0544ZM186.144 34.0211L189.28 35.1943C189.92 35.3797 190.493 35.7593 190.926 36.2853C191.067 36.503 191.157 36.7523 191.189 37.0131C191.22 37.2738 191.193 37.5387 191.109 37.7864C191.025 38.0342 190.887 38.2578 190.705 38.4392C190.524 38.6207 190.304 38.7549 190.064 38.8311C189.407 38.9577 188.728 38.876 188.115 38.5964L184.946 37.4233L186.144 34.0211ZM188.698 45.1192C188.003 45.2289 187.292 45.1313 186.648 44.8376L182.918 43.4064L184.139 39.8869L187.869 41.283C189.571 41.9165 190.21 42.8315 189.806 44.0282C189.729 44.2959 189.586 44.5376 189.391 44.7291C189.197 44.9205 188.958 45.0551 188.698 45.1192Z" fill="white"/>
<path d="M271.634 48.2046V53.6246C274.871 53.8954 277.944 55.2298 280.414 57.4373L284.066 53.6011C280.618 50.3903 276.239 48.4893 271.634 48.2046Z" fill="#E6E6E6"/>
<path d="M269.136 85.9567C265.473 85.6466 262.035 83.9825 259.435 81.2618C256.836 78.5411 255.245 74.9409 254.946 71.1045H249.76C250.063 76.3792 252.201 81.3547 255.769 85.0901C259.338 88.8256 264.089 91.062 269.125 91.3766L269.136 85.9567Z" fill="#F5F5F5"/>
<path d="M254.946 68.4885C255.242 64.65 256.832 61.047 259.432 58.3239C262.032 55.6008 265.471 53.9351 269.136 53.6246V48.2046C264.097 48.5192 259.343 50.757 255.773 54.4946C252.202 58.2322 250.063 63.2107 249.76 68.4885H254.946Z" fill="#E0E0E0"/>
<path d="M285.835 55.4546L282.173 59.2908C284.023 61.5623 285.238 64.3253 285.683 67.2746C286.129 70.2238 285.788 73.2447 284.697 76.0036C283.607 78.7625 281.81 81.152 279.504 82.9085C277.199 84.6649 274.475 85.7198 271.634 85.9567V91.3767C275.497 91.1318 279.217 89.754 282.369 87.4006C285.521 85.0472 287.977 81.813 289.458 78.0672C290.939 74.3213 291.384 70.2148 290.744 66.2164C290.103 62.218 288.402 58.4888 285.835 55.4546Z" fill="#EBEBEB"/>
<path d="M95.4128 112.412L95.8944 124.46L123.469 116.682L137.122 98.8973L152.477 92.8555L154 97.1141L165.648 83.9864L148.109 78.0854L149.845 82.9071L134.523 88.7025L121.352 106.898L95.4128 112.412Z" fill="#E6E6E6"/>
<path d="M439.107 124.683C440.873 127.974 441.667 131.739 441.39 135.503C441.113 139.266 439.776 142.859 437.549 145.827C435.323 148.795 432.306 151.005 428.88 152.178C425.455 153.35 421.774 153.432 418.304 152.413C414.834 151.395 411.73 149.321 409.385 146.455C407.04 143.589 405.559 140.059 405.129 136.311C404.699 132.563 405.34 128.766 406.97 125.399C408.6 122.033 411.147 119.248 414.288 117.398C416.374 116.169 418.671 115.382 421.048 115.083C423.424 114.784 425.834 114.978 428.139 115.655C430.443 116.331 432.598 117.477 434.48 119.026C436.362 120.575 437.935 122.497 439.107 124.683Z" fill="#E6E6E6"/>
<path d="M437.567 146.913C444.926 139.722 445.327 127.644 438.462 119.936C431.597 112.228 420.066 111.808 412.707 118.999C405.348 126.189 404.947 138.267 411.812 145.976C418.677 153.684 430.208 154.104 437.567 146.913Z" fill="#F0F0F0"/>
<path d="M437.481 138.886C440.645 131.724 437.666 123.231 430.829 119.917C423.991 116.603 415.883 119.723 412.72 126.885C409.556 134.047 412.534 142.539 419.372 145.853C426.209 149.167 434.317 146.048 437.481 138.886Z" fill="#E6E6E6"/>
<path d="M431.76 132.496C433.698 134.972 432.88 137.881 429.789 140.086L430.909 142.433L428.938 143.606L427.818 141.26C426.042 142.108 424.101 142.51 422.151 142.433L421.669 139.347C423.303 139.454 424.939 139.152 426.44 138.468L424.648 134.948C422.408 135.499 419.855 136.004 418.085 133.775C416.159 131.3 416.965 128.343 420.179 126.149L419.059 123.803L421.031 122.63L422.218 124.976C423.626 124.302 425.15 123.935 426.698 123.897L427.291 126.924C426.021 126.898 424.761 127.158 423.595 127.686L425.466 131.382C427.605 130.83 430.08 130.349 431.76 132.496ZM423.114 131.968L421.591 128.953C420.627 129.821 420.47 130.772 420.974 131.487C421.478 132.203 422.24 132.109 423.114 131.968ZM428.96 134.913C428.695 134.653 428.367 134.475 428.011 134.396C427.656 134.317 427.287 134.342 426.944 134.467L428.4 137.33C429.285 136.45 429.498 135.57 428.96 134.913Z" fill="white"/>
<path d="M362.41 19.4976L345.229 49.3661L362.41 60.2413V19.4976Z" fill="#F5F5F5"/>
<path d="M345.229 49.3658L362.41 41.2944V60.2409L345.229 49.3658Z" fill="#EBEBEB"/>
<path d="M362.41 19.4976L379.59 49.3661L362.41 60.2413V19.4976Z" fill="#EBEBEB"/>
<path d="M379.59 49.3658L362.41 41.2944V60.2409L379.59 49.3658Z" fill="#E0E0E0"/>
<path d="M345.173 54.8096L362.466 80.3375L362.41 65.6026L345.173 54.8096Z" fill="#F5F5F5"/>
<path d="M379.646 54.8096L362.342 80.3375L362.409 65.6026L379.646 54.8096Z" fill="#EBEBEB"/>
<path d="M124.197 394.052H117.107V394.345H124.197V394.052Z" fill="#EBEBEB"/>
<path d="M282.397 436.426C402.329 436.426 499.554 430.48 499.554 423.146C499.554 415.811 402.329 409.866 282.397 409.866C162.464 409.866 65.24 415.811 65.24 423.146C65.24 430.48 162.464 436.426 282.397 436.426Z" fill="#F5F5F5"/>
<path d="M310.867 422.196H82.88C78.2062 418.752 74.9083 413.624 73.6169 407.794C72.3255 401.963 73.1312 395.838 75.88 390.591C76.9136 388.468 78.4577 386.665 80.36 385.358C77.8103 380.323 77.0483 374.503 78.2096 368.934C79.3968 363.69 83.5408 360.136 87.8192 357.273C84.652 338.078 88.2331 318.331 97.8992 301.689C107.509 285.335 123.357 274.706 140.784 269.533C139.987 262.531 140.605 255.433 142.597 248.698C144.589 241.963 147.91 235.742 152.346 230.438C156.782 225.135 162.232 220.868 168.345 217.914C174.457 214.96 181.093 213.385 187.824 213.291C188.325 208.322 189.851 203.525 192.298 199.235C194.744 194.944 198.052 191.262 201.992 188.444C205.869 185.681 210.289 183.864 214.925 183.127C219.562 182.39 224.297 182.752 228.782 184.185C229.477 180.666 230.927 177.358 233.023 174.513C235.118 171.667 237.805 169.358 240.878 167.761C243.955 166.241 247.327 165.494 250.727 165.577C254.127 165.661 257.462 166.573 260.467 168.242C269.629 165.521 279.709 170.647 283.864 179.774C288.019 188.902 285.242 201.009 277.57 207.027C286.227 220.542 285.846 241.705 276.651 254.81C281.714 256.241 283.909 263.843 284.659 269.38C286.827 285.475 284.215 301.878 277.178 316.365C286.518 315.896 295.557 323.193 301.123 331.217C303.885 335.291 305.684 339.993 306.371 344.937C307.058 349.881 306.615 354.925 305.077 359.655C310.498 359.303 315.101 363.796 317.766 368.829C319.766 373.008 321.047 377.523 321.552 382.167C321.766 382.631 321.927 383.119 322.034 383.622C324.934 396.973 320.466 412.846 310.867 422.196Z" fill="#254EF0"/>
<g opacity="0.6">
<path d="M310.867 422.196H82.88C78.2062 418.752 74.9083 413.624 73.6169 407.794C72.3255 401.963 73.1312 395.838 75.88 390.591C76.9136 388.468 78.4577 386.665 80.36 385.358C77.8103 380.323 77.0483 374.503 78.2096 368.934C79.3968 363.69 83.5408 360.136 87.8192 357.273C84.652 338.078 88.2331 318.331 97.8992 301.689C107.509 285.335 123.357 274.706 140.784 269.533C139.987 262.531 140.605 255.433 142.597 248.698C144.589 241.963 147.91 235.742 152.346 230.438C156.782 225.135 162.232 220.868 168.345 217.914C174.457 214.96 181.093 213.385 187.824 213.291C188.325 208.322 189.851 203.525 192.298 199.235C194.744 194.944 198.052 191.262 201.992 188.444C205.869 185.681 210.289 183.864 214.925 183.127C219.562 182.39 224.297 182.752 228.782 184.185C229.477 180.666 230.927 177.358 233.023 174.513C235.118 171.667 237.805 169.358 240.878 167.761C243.955 166.241 247.327 165.494 250.727 165.577C254.127 165.661 257.462 166.573 260.467 168.242C269.629 165.521 279.709 170.647 283.864 179.774C288.019 188.902 285.242 201.009 277.57 207.027C286.227 220.542 285.846 241.705 276.651 254.81C281.714 256.241 283.909 263.843 284.659 269.38C286.827 285.475 284.215 301.878 277.178 316.365C286.518 315.896 295.557 323.193 301.123 331.217C303.885 335.291 305.684 339.993 306.371 344.937C307.058 349.881 306.615 354.925 305.077 359.655C310.498 359.303 315.101 363.796 317.766 368.829C319.766 373.008 321.047 377.523 321.552 382.167C321.766 382.631 321.927 383.119 322.034 383.622C324.934 396.973 320.466 412.846 310.867 422.196Z" fill="white"/>
</g>
<path d="M256.167 148.545L326.626 136.567C326.873 136.528 327.125 136.558 327.357 136.654C327.589 136.749 327.793 136.907 327.949 137.112C328.104 137.316 328.206 137.56 328.243 137.819C328.28 138.077 328.251 138.341 328.16 138.585L301.359 207.883C301.268 208.124 301.118 208.335 300.925 208.496C300.731 208.657 300.5 208.761 300.255 208.798C300.011 208.835 299.761 208.803 299.532 208.706C299.303 208.61 299.102 208.451 298.951 208.247L255.271 150.926C255.117 150.723 255.016 150.481 254.98 150.225C254.943 149.968 254.972 149.706 255.063 149.465C255.153 149.223 255.303 149.011 255.497 148.85C255.691 148.688 255.922 148.583 256.167 148.545Z" fill="#254EF0"/>
<path opacity="0.2" d="M256.167 148.545L326.626 136.567C326.873 136.528 327.125 136.558 327.357 136.654C327.589 136.749 327.793 136.907 327.949 137.112C328.104 137.316 328.206 137.56 328.243 137.819C328.28 138.077 328.251 138.341 328.16 138.585L301.359 207.883C301.268 208.124 301.118 208.335 300.925 208.496C300.731 208.657 300.5 208.761 300.255 208.798C300.011 208.835 299.761 208.803 299.532 208.706C299.303 208.61 299.102 208.451 298.951 208.247L255.271 150.926C255.117 150.723 255.016 150.481 254.98 150.225C254.943 149.968 254.972 149.706 255.063 149.465C255.153 149.223 255.303 149.011 255.497 148.85C255.691 148.688 255.922 148.583 256.167 148.545Z" fill="white"/>
<path d="M261.195 176.501L265.586 170.553L261.766 165.532L255.248 168.699C255.7 170.346 256.457 171.883 257.478 173.222C258.499 174.561 259.762 175.675 261.195 176.501Z" fill="#263238"/>
<path opacity="0.2" d="M261.767 165.532L260.232 166.271C261.131 168.554 262.63 170.523 264.555 171.949L265.586 170.553L261.767 165.532Z" fill="white"/>
<path opacity="0.4" d="M258.597 167.069L257.376 167.667C258.423 170.465 260.254 172.866 262.629 174.554L263.446 173.439C261.452 171.664 259.805 169.501 258.597 167.069Z" fill="white"/>
<path d="M268.095 173.017C266.15 171.902 264.436 170.395 263.05 168.583C261.664 166.771 260.634 164.689 260.019 162.458L300.53 128.601C302.795 126.7 305.398 125.288 308.187 124.447C310.976 123.605 313.897 123.35 316.781 123.697C316.463 126.718 315.577 129.643 314.173 132.303C312.77 134.963 310.878 137.305 308.605 139.195L268.095 173.017Z" fill="#254EF0"/>
<path d="M300.53 128.565L262.349 160.487C263.83 164.854 266.67 168.573 270.413 171.045L308.605 139.124C310.877 137.234 312.77 134.892 314.173 132.232C315.576 129.572 316.463 126.647 316.781 123.626C313.895 123.284 310.973 123.545 308.183 124.393C305.394 125.24 302.793 126.659 300.53 128.565Z" fill="#254EF0"/>
<path opacity="0.5" d="M300.53 128.565L262.349 160.487C263.83 164.854 266.67 168.573 270.413 171.045L308.605 139.124C310.877 137.234 312.77 134.892 314.173 132.232C315.576 129.572 316.463 126.647 316.781 123.626C313.895 123.284 310.973 123.545 308.183 124.393C305.394 125.24 302.793 126.659 300.53 128.565Z" fill="white"/>
<path d="M300.53 128.565L298.782 130.032C300.478 134.27 303.271 137.927 306.846 140.59L308.605 139.124C310.877 137.234 312.77 134.892 314.173 132.232C315.576 129.572 316.463 126.647 316.781 123.626C313.895 123.284 310.973 123.545 308.183 124.393C305.394 125.24 302.793 126.659 300.53 128.565Z" fill="#254EF0"/>
<path opacity="0.2" d="M300.53 128.565L298.782 130.032C300.478 134.27 303.271 137.927 306.846 140.59L308.605 139.124C310.877 137.234 312.77 134.892 314.173 132.232C315.576 129.572 316.463 126.647 316.781 123.626C313.895 123.284 310.973 123.545 308.183 124.393C305.394 125.24 302.793 126.659 300.53 128.565Z" fill="white"/>
<path d="M282.487 202.686L286.877 196.727L283.058 191.717L276.551 194.885C277 196.531 277.755 198.068 278.774 199.407C279.793 200.746 281.055 201.86 282.487 202.686Z" fill="#263238"/>
<path opacity="0.2" d="M283.058 191.717L281.535 192.456C282.429 194.739 283.929 196.706 285.858 198.123L286.877 196.727L283.058 191.717Z" fill="white"/>
<path opacity="0.4" d="M279.899 193.253L278.678 193.84C279.718 196.643 281.546 199.049 283.92 200.738L284.749 199.565C282.757 197.81 281.11 195.667 279.899 193.253Z" fill="white"/>
<path d="M289.397 199.202C285.475 196.943 282.571 193.145 281.322 188.643L321.832 154.786C324.098 152.886 326.701 151.474 329.49 150.63C332.278 149.787 335.199 149.529 338.083 149.871C337.759 152.891 336.871 155.816 335.468 158.477C334.065 161.138 332.176 163.484 329.907 165.38L289.397 199.202Z" fill="#254EF0"/>
<path d="M321.832 154.751L283.64 186.66C285.126 191.028 287.97 194.746 291.715 197.219L329.907 165.309C332.175 163.413 334.065 161.067 335.468 158.406C336.871 155.745 337.759 152.821 338.083 149.8C335.196 149.463 332.275 149.727 329.486 150.576C326.697 151.426 324.096 152.844 321.832 154.751Z" fill="#254EF0"/>
<path opacity="0.5" d="M321.832 154.751L283.64 186.66C285.126 191.028 287.97 194.746 291.715 197.219L329.907 165.309C332.175 163.413 334.065 161.067 335.468 158.406C336.871 155.745 337.759 152.821 338.083 149.8C335.196 149.463 332.275 149.727 329.486 150.576C326.697 151.426 324.096 152.844 321.832 154.751Z" fill="white"/>
<path d="M321.832 154.751L320.085 156.205C321.78 160.444 324.573 164.101 328.149 166.764L329.907 165.297C332.176 163.401 334.065 161.056 335.468 158.395C336.871 155.733 337.76 152.809 338.083 149.788C335.196 149.453 332.274 149.718 329.485 150.57C326.696 151.422 324.095 152.842 321.832 154.751Z" fill="#254EF0"/>
<path opacity="0.2" d="M321.832 154.751L320.085 156.205C321.78 160.444 324.573 164.101 328.149 166.764L329.907 165.297C332.176 163.401 334.065 161.056 335.468 158.395C336.871 155.733 337.76 152.809 338.083 149.788C335.196 149.453 332.274 149.718 329.485 150.57C326.696 151.422 324.095 152.842 321.832 154.751Z" fill="white"/>
<path d="M271.141 194.087L278.242 184.49L272.071 176.384L261.554 181.499C262.279 184.156 263.5 186.637 265.145 188.797C266.791 190.958 268.829 192.756 271.141 194.087Z" fill="#263238"/>
<path opacity="0.2" d="M272.07 176.384L269.606 177.557C271.05 181.239 273.467 184.414 276.573 186.708L278.242 184.467L272.07 176.384Z" fill="white"/>
<path opacity="0.4" d="M266.963 178.871L264.981 179.833C266.67 184.352 269.626 188.229 273.459 190.955L274.792 189.148C271.569 186.288 268.91 182.797 266.963 178.871Z" fill="white"/>
<path d="M282.24 188.468C279.1 186.656 276.333 184.212 274.098 181.276C271.863 178.341 270.203 174.972 269.214 171.363L334.611 116.706C338.27 113.642 342.471 111.366 346.973 110.007C351.474 108.648 356.187 108.233 360.842 108.787C360.325 113.663 358.894 118.384 356.629 122.678C354.365 126.972 351.313 130.756 347.648 133.81L282.24 188.468Z" fill="#254EF0"/>
<path d="M334.656 116.705L273.056 168.23C275.424 175.305 279.996 181.338 286.037 185.358L347.693 133.833C351.358 130.779 354.41 126.995 356.674 122.701C358.938 118.407 360.37 113.686 360.886 108.81C356.233 108.253 351.521 108.664 347.02 110.019C342.519 111.373 338.317 113.646 334.656 116.705Z" fill="#254EF0"/>
<path opacity="0.6" d="M334.656 116.705L273.056 168.23C275.424 175.305 279.996 181.338 286.037 185.358L347.693 133.833C351.358 130.779 354.41 126.995 356.674 122.701C358.938 118.407 360.37 113.686 360.886 108.81C356.233 108.253 351.521 108.664 347.02 110.019C342.519 111.373 338.317 113.646 334.656 116.705Z" fill="white"/>
<path d="M334.656 116.706L331.834 119.052C334.564 125.917 339.077 131.842 344.859 136.157L347.693 133.81C351.358 130.756 354.41 126.972 356.674 122.678C358.939 118.384 360.37 113.663 360.887 108.787C356.232 108.233 351.519 108.648 347.018 110.007C342.516 111.366 338.315 113.642 334.656 116.706Z" fill="#254EF0"/>
<path opacity="0.2" d="M334.656 116.706L331.834 119.052C334.564 125.917 339.077 131.842 344.859 136.157L347.693 133.81C351.358 130.756 354.41 126.972 356.674 122.678C358.939 118.384 360.37 113.663 360.887 108.787C356.232 108.233 351.519 108.648 347.018 110.007C342.516 111.366 338.315 113.642 334.656 116.706Z" fill="white"/>
<path d="M331.89 141.177C330.949 141.961 329.807 142.436 328.609 142.541C327.411 142.645 326.211 142.376 325.159 141.766C324.107 141.157 323.251 140.234 322.699 139.115C322.148 137.996 321.925 136.731 322.06 135.48C322.194 134.229 322.68 133.047 323.455 132.085C324.23 131.122 325.26 130.422 326.415 130.072C327.57 129.723 328.798 129.74 329.944 130.121C331.09 130.502 332.102 131.231 332.853 132.214C333.859 133.537 334.322 135.224 334.142 136.905C333.961 138.585 333.151 140.122 331.89 141.177Z" fill="#254EF0"/>
<path d="M323.333 140.168C322.378 138.912 321.911 137.325 322.025 135.724C322.139 134.124 322.826 132.627 323.949 131.534C323.821 131.62 323.697 131.714 323.579 131.815C322.955 132.338 322.435 132.983 322.049 133.716C321.663 134.449 321.418 135.254 321.33 136.086C321.241 136.918 321.309 137.76 321.531 138.564C321.752 139.368 322.123 140.118 322.622 140.772C323.12 141.426 323.737 141.971 324.437 142.375C325.136 142.78 325.905 143.036 326.699 143.129C327.493 143.222 328.297 143.15 329.065 142.918C329.832 142.686 330.549 142.298 331.173 141.775L331.509 141.459C330.242 142.363 328.695 142.732 327.179 142.493C325.663 142.253 324.29 141.423 323.333 140.168Z" fill="#254EF0"/>
<path opacity="0.3" d="M323.333 140.168C322.378 138.912 321.911 137.325 322.025 135.724C322.139 134.124 322.826 132.627 323.949 131.534C323.821 131.62 323.697 131.714 323.579 131.815C322.955 132.338 322.435 132.983 322.049 133.716C321.663 134.449 321.418 135.254 321.33 136.086C321.241 136.918 321.309 137.76 321.531 138.564C321.752 139.368 322.123 140.118 322.622 140.772C323.12 141.426 323.737 141.971 324.437 142.375C325.136 142.78 325.905 143.036 326.699 143.129C327.493 143.222 328.297 143.15 329.065 142.918C329.832 142.686 330.549 142.298 331.173 141.775L331.509 141.459C330.242 142.363 328.695 142.732 327.179 142.493C325.663 142.253 324.29 141.423 323.333 140.168Z" fill="black"/>
<path d="M330.77 139.711C330.105 140.267 329.297 140.605 328.449 140.68C327.601 140.755 326.751 140.565 326.006 140.134C325.261 139.703 324.655 139.05 324.265 138.258C323.874 137.466 323.717 136.57 323.812 135.684C323.908 134.799 324.253 133.962 324.802 133.282C325.352 132.601 326.082 132.107 326.9 131.861C327.718 131.615 328.587 131.629 329.398 131.901C330.208 132.172 330.923 132.69 331.453 133.388C331.807 133.849 332.07 134.379 332.227 134.947C332.384 135.516 332.432 136.111 332.369 136.699C332.305 137.287 332.131 137.855 331.857 138.372C331.582 138.889 331.213 139.345 330.77 139.711Z" fill="white"/>
<path d="M324.61 138.808L332.181 134.831C332.031 134.344 331.804 133.888 331.509 133.481L323.96 137.435C324.103 137.927 324.323 138.39 324.61 138.808Z" fill="#254EF0"/>
<path d="M325.786 139.969L332.371 136.52C332.399 136.239 332.399 135.956 332.371 135.675L325.17 139.453C325.36 139.644 325.566 139.816 325.786 139.969Z" fill="#254EF0"/>
<g opacity="0.7">
<path d="M324.61 138.808L332.181 134.831C332.031 134.344 331.804 133.888 331.509 133.481L323.96 137.435C324.103 137.927 324.323 138.39 324.61 138.808Z" fill="white"/>
<path d="M325.786 139.969L332.371 136.52C332.399 136.239 332.399 135.956 332.371 135.675L325.17 139.453C325.36 139.644 325.566 139.816 325.786 139.969Z" fill="white"/>
</g>
<path d="M405.731 210.395H345.542V422.032H405.731V210.395Z" fill="#254EF0"/>
<path opacity="0.2" d="M362.399 210.371H345.397V421.915H362.399V210.371Z" fill="black"/>
<path d="M132.866 363.175H72.6768V422.044H132.866V363.175Z" fill="#254EF0"/>
<path opacity="0.2" d="M89.1183 363.116H72.1167V421.927H89.1183V363.116Z" fill="black"/>
<path d="M220.248 312.248H160.059V422.032H220.248V312.248Z" fill="#254EF0"/>
<path opacity="0.2" d="M176.647 312.201H159.645V421.927H176.647V312.201Z" fill="black"/>
<path d="M313.858 261.321H253.669V422.032H313.858V261.321Z" fill="#254EF0"/>
<path opacity="0.2" d="M270.391 261.286H253.389V421.927H270.391V261.286Z" fill="black"/>
<path d="M493.113 159.468H432.925V422.032H493.113V159.468Z" fill="#254EF0"/>
<path opacity="0.2" d="M449.926 159.468H432.925V421.927H449.926V159.468Z" fill="black"/>
<path d="M192.55 277.85L187.578 295.623L194.902 297.418L200.48 280.408L192.55 277.85Z" fill="#FF8B7B"/>
<path d="M196.549 295.365L188.16 293.664C187.999 293.639 187.835 293.672 187.695 293.757C187.555 293.842 187.446 293.975 187.387 294.133L184.374 301.524C184.237 301.825 184.218 302.17 184.321 302.486C184.423 302.801 184.639 303.062 184.923 303.213L185.158 303.296C188.205 303.847 190.949 304.199 194.734 304.961C199.214 305.865 197.949 306.24 203.19 307.378C206.337 308.059 207.67 304.14 206.405 303.671C200.424 301.571 200.189 299.365 198.296 296.421C197.869 295.842 197.241 295.462 196.549 295.365Z" fill="#263238"/>
<path d="M152.936 161.836L181.843 180.372L151.558 185.933L152.936 161.836Z" fill="#263238"/>
<path d="M199.27 289.019L188.832 287.06C188.832 287.06 192.718 271.902 196.929 251.184C197.579 247.993 205.968 223.709 205.968 223.709C205.968 223.709 164.528 203.367 163.867 203.144C163.341 202.968 159.947 202.698 154.649 198.357C144.793 190.286 147.929 174.495 147.929 174.495L173.689 175.14C198.833 189.218 220.662 209.784 223.608 218.207C227.752 230.068 199.27 289.019 199.27 289.019Z" fill="#263238"/>
<path d="M95.8382 269.932L78.6238 274.178L80.763 281.745L97.6302 278.414L95.8382 269.932Z" fill="#FF8B7B"/>
<path d="M83.2717 282.214L80.5165 273.697C80.456 273.539 80.3476 273.407 80.2079 273.32C80.0682 273.233 79.9051 273.196 79.7437 273.216L72.1165 274.131C71.7995 274.155 71.5043 274.309 71.2947 274.559C71.0851 274.81 70.978 275.136 70.9965 275.469C70.9859 275.55 70.9859 275.633 70.9965 275.715C72.0493 278.765 73.1021 281.44 74.3565 285.265C75.8237 289.781 74.8941 288.784 76.5965 294.157C77.5821 297.372 81.5133 296.668 81.2557 295.248C80.0461 288.772 81.7597 287.47 83.2717 284.291C83.5289 283.625 83.5289 282.88 83.2717 282.214Z" fill="#263238"/>
<path d="M89.8909 281.558L86.3629 271.093L141.12 239.124C141.12 239.124 137.547 191.365 137.379 190.626C137.211 189.887 135.811 186.837 136.797 179.857C138.622 166.952 153.249 161.919 153.249 161.919L165.76 189.57C165.76 189.57 159.947 245.624 154.414 252.463C146.63 262.095 89.8909 281.558 89.8909 281.558Z" fill="#263238"/>
<path opacity="0.2" d="M163.867 203.143L154.649 198.357L161.75 221.257L163.867 203.143Z" fill="black"/>
<path d="M185.92 127.967C181.171 129.035 176.4 129.985 171.629 130.912L168.045 131.592L164.853 132.167C163.47 132.476 162.198 133.183 161.179 134.208L156.15 139.605C154.47 141.435 152.79 143.265 151.077 145.06C147.717 148.673 144.245 152.275 140.75 155.818C140.199 156.376 139.469 156.698 138.703 156.723C137.937 156.747 137.19 156.471 136.607 155.949C136.025 155.427 135.65 154.696 135.554 153.9C135.459 153.103 135.65 152.298 136.091 151.642C138.869 147.477 141.691 143.429 144.603 139.3C146.025 137.235 147.481 135.217 148.937 133.2L153.417 127.017C155.62 124.227 158.551 122.169 161.851 121.093L165.726 119.99L169.221 119.028C173.891 117.784 178.55 116.541 183.243 115.414C184.767 115.208 186.309 115.606 187.567 116.53C188.825 117.453 189.708 118.836 190.043 120.406C190.378 121.976 190.141 123.621 189.378 125.018C188.616 126.415 187.382 127.462 185.92 127.956V127.967Z" fill="#254EF0"/>
<path opacity="0.1" d="M185.92 127.967C181.171 129.035 176.4 129.985 171.629 130.912L168.045 131.592L164.853 132.167C163.47 132.476 162.198 133.183 161.179 134.208L156.15 139.605C154.47 141.435 152.79 143.265 151.077 145.06C147.717 148.673 144.245 152.275 140.75 155.818C140.199 156.376 139.469 156.698 138.703 156.723C137.937 156.747 137.19 156.471 136.607 155.949C136.025 155.427 135.65 154.696 135.554 153.9C135.459 153.103 135.65 152.298 136.091 151.642C138.869 147.477 141.691 143.429 144.603 139.3C146.025 137.235 147.481 135.217 148.937 133.2L153.417 127.017C155.62 124.227 158.551 122.169 161.851 121.093L165.726 119.99L169.221 119.028C173.891 117.784 178.55 116.541 183.243 115.414C184.767 115.208 186.309 115.606 187.567 116.53C188.825 117.453 189.708 118.836 190.043 120.406C190.378 121.976 190.141 123.621 189.378 125.018C188.616 126.415 187.382 127.462 185.92 127.956V127.967Z" fill="black"/>
<path d="M135.139 151.571L127.747 154.575L134.467 161.355L140.067 156.663C140.224 156.533 140.355 156.371 140.45 156.187C140.546 156.003 140.604 155.8 140.622 155.591C140.64 155.383 140.617 155.172 140.554 154.973C140.491 154.774 140.39 154.591 140.257 154.434C139.628 153.625 138.851 152.956 137.973 152.464C137.094 151.973 136.131 151.669 135.139 151.571Z" fill="#FF8B7B"/>
<path d="M127.747 154.575L126.627 156.827C126.348 157.369 126.26 157.996 126.378 158.599C126.497 159.202 126.815 159.742 127.277 160.124L129.651 162.071C130.005 162.364 130.429 162.551 130.877 162.611C131.325 162.671 131.78 162.602 132.193 162.411L134.433 161.356L127.747 154.575Z" fill="#FF8B7B"/>
<path d="M94.5503 185.276L91.8287 184.807L93.5199 182.66L127.579 169.849C133 167.808 136.539 163.984 133.739 157.039C131.152 150.586 125.328 148.674 119.918 150.692L85.8591 163.35L83.1039 162.81L84.8175 160.722L118.888 148.087C125.182 145.741 131.208 146.281 135.341 156.417C139.473 166.553 134.915 170.037 128.621 172.407L94.5503 185.276Z" fill="#263238"/>
<path d="M104.641 146.562L103.891 144.791C103.138 143.014 101.792 141.585 100.105 140.773C98.4188 139.961 96.5074 139.821 94.7294 140.38L69.6078 148.287L74.0878 159.913L104.641 146.562Z" fill="#263238"/>
<path opacity="0.2" d="M104.641 146.562L103.891 144.791C103.138 143.014 101.792 141.585 100.105 140.773C98.4188 139.961 96.5074 139.821 94.7294 140.38L69.6078 148.287L74.0878 159.913L104.641 146.562Z" fill="white"/>
<path d="M96.0061 189.453L94.9645 186.836L127.993 171.585C133.246 169.169 136.629 164.981 133.851 158.071C131.264 151.607 125.574 149.999 120.321 152.393L87.2925 167.479L86.2397 164.875L119.269 149.823C125.384 147.043 131.309 147.219 135.385 157.378C139.462 167.538 135.128 171.374 129.024 174.19L96.0061 189.453Z" fill="#263238"/>
<path d="M92.2431 205.795L71.8815 154.246L96.5215 143.23C97.2595 142.886 98.0557 142.698 98.8635 142.68C99.6713 142.661 100.475 142.811 101.226 143.121C101.978 143.432 102.663 143.896 103.242 144.486C103.821 145.077 104.281 145.783 104.597 146.562L119.549 184.033C120.347 186.101 120.345 188.413 119.545 190.48C118.744 192.547 117.207 194.206 115.259 195.107L92.2431 205.795Z" fill="#263238"/>
<g opacity="0.3">
<path d="M96.0063 189.453L93.3519 189.124L94.9647 186.778L127.994 171.527C133.246 169.11 136.629 164.922 133.851 158.012C131.264 151.548 125.574 149.941 120.322 152.334L87.2927 167.479L84.6047 167.092L86.2399 164.875L119.269 149.823C125.384 147.043 131.309 147.219 135.386 157.378C139.462 167.538 135.128 171.374 129.024 174.19L96.0063 189.453Z" fill="white"/>
</g>
<path d="M100.363 162.376L98.6606 158.094L100.184 157.39L101.897 161.684L100.363 162.376Z" fill="#263238"/>
<path d="M90.4398 166.916L88.7262 162.611L90.2606 161.907L91.9742 166.212L90.4398 166.916Z" fill="#263238"/>
<path d="M109.144 184.431L107.43 180.114L108.953 179.41L110.667 183.716L109.144 184.431Z" fill="#263238"/>
<path d="M99.2093 189.019L97.4957 184.701L99.0301 183.986L100.744 188.303L99.2093 189.019Z" fill="#263238"/>
<path d="M224.526 108.387C224.851 108.552 224.918 109.103 224.672 109.561C224.425 110.018 223.977 110.358 223.664 110.194C223.35 110.03 223.283 109.479 223.518 108.962C223.753 108.446 224.213 108.212 224.526 108.387Z" fill="#263238"/>
<path d="M224.302 108.786C224.72 108.87 225.153 108.795 225.523 108.575C225.313 108.597 225.101 108.575 224.899 108.51C224.697 108.446 224.51 108.34 224.347 108.2C224.385 108.294 224.4 108.397 224.392 108.499C224.384 108.601 224.354 108.699 224.302 108.786Z" fill="#263238"/>
<path d="M221.514 113.679C221.861 113.991 222.27 114.22 222.711 114.35C223.152 114.479 223.615 114.507 224.067 114.429C223.733 112.59 223.639 110.711 223.787 108.845L221.514 113.679Z" fill="#FF5652"/>
<path d="M222.757 105.76C223.148 105.664 223.555 105.668 223.944 105.77C224.334 105.872 224.694 106.069 224.997 106.346L225.064 106.428C225.098 106.456 225.138 106.476 225.179 106.487C225.221 106.498 225.265 106.501 225.308 106.494C225.35 106.488 225.391 106.472 225.428 106.449C225.465 106.426 225.498 106.395 225.523 106.358C225.549 106.323 225.568 106.283 225.578 106.24C225.589 106.197 225.591 106.152 225.585 106.108C225.579 106.065 225.564 106.022 225.542 105.985C225.52 105.947 225.49 105.914 225.456 105.889C225.089 105.526 224.643 105.262 224.158 105.119C223.672 104.976 223.161 104.958 222.667 105.068C222.592 105.08 222.524 105.122 222.477 105.185C222.418 105.25 222.386 105.336 222.386 105.425C222.386 105.515 222.418 105.601 222.477 105.666C222.514 105.701 222.559 105.728 222.607 105.744C222.655 105.76 222.706 105.766 222.757 105.76Z" fill="#263238"/>
<path d="M200.401 129.739C193.144 123.873 195.137 118.852 195.137 118.852C198.934 118.43 202.07 114.5 204.31 110.546C204.256 111.871 204.434 113.196 204.837 114.453C205.654 117.057 210.817 118.242 210.817 118.242C210.817 118.242 210.313 118.911 209.697 119.908C208.04 122.36 205.43 126.888 206.987 129.211C206.931 129.211 208.387 136.203 200.401 129.739Z" fill="#FF8B7B"/>
<path d="M210.47 118.946C210.134 119.228 209.798 119.51 209.473 119.838C209.437 119.851 209.398 119.851 209.361 119.838C208.299 119.327 207.352 118.587 206.58 117.668C205.808 116.748 205.23 115.669 204.881 114.5C204.473 113.24 204.295 111.911 204.355 110.582C204.937 109.585 205.475 108.564 205.901 107.625L210.381 118.583L210.47 118.946Z" fill="#FF8B7B"/>
<path d="M220.259 117.057C219.261 118.338 217.969 119.333 216.504 119.949C215.038 120.564 213.448 120.78 211.881 120.577C211.065 120.481 210.267 120.252 209.518 119.896C209.482 119.91 209.442 119.91 209.406 119.896C208.344 119.385 207.397 118.646 206.625 117.726C205.853 116.806 205.274 115.727 204.926 114.558C204.518 113.298 204.34 111.969 204.4 110.64C204.523 107.449 205.968 104.27 207.827 99.6359C208.409 98.1217 209.351 96.7888 210.564 95.7639C211.777 94.7391 213.22 94.0566 214.756 93.7814C216.292 93.5062 217.87 93.6475 219.339 94.1918C220.808 94.736 222.119 95.6652 223.149 96.8908C227.763 102.322 224.201 112.06 220.259 117.057Z" fill="#FF8B7B"/>
<path opacity="0.2" d="M211.377 120.366C210.776 120.331 210.187 120.176 209.641 119.908C210.313 118.911 210.829 118.254 210.761 118.242L212.139 116.647C212.139 116.647 210.997 120.049 211.377 120.366Z" fill="black"/>
<path d="M226.105 105.22C224.795 105.713 222.331 105.009 222.566 104.845C223.484 104.293 224.593 102.698 223.372 102.264C223.171 103.108 220.449 108.411 219.665 108.669C219.24 108.822 216.305 112.376 212.262 114.406C209.092 116.025 208.476 116.834 208.476 116.834L202.876 113.772C201.219 112.013 197.22 96.2572 205.699 93.2539C208.476 92.2685 210.604 89.8048 215.017 91.1305C217.739 91.9517 220.931 91.4473 223.608 92.421C224.973 92.8394 226.221 93.5995 227.243 94.6357C228.266 95.672 229.032 96.9532 229.476 98.3689C229.779 99.7767 229.42 104 226.105 105.22Z" fill="#263238"/>
<path d="M220.998 106.487C222.118 108.2 221.189 111.179 220.136 112.728C219.083 114.277 217.145 114.593 216.608 112.364C216.223 110.67 216.376 108.891 217.045 107.296C217.885 105.396 219.833 104.774 220.998 106.487Z" fill="#FF8B7B"/>
<path d="M191.027 119.861C191.027 119.861 194.869 117.174 197.411 117.433C199.953 117.691 206.461 124.988 207.267 126.419C208.073 127.85 207.121 131.616 207.121 131.616L191.027 119.861Z" fill="#254EF0"/>
<path opacity="0.3" d="M191.027 119.861C191.027 119.861 194.869 117.174 197.411 117.433C199.953 117.691 206.461 124.988 207.267 126.419C208.073 127.85 207.121 131.616 207.121 131.616L191.027 119.861Z" fill="white"/>
<path d="M209.081 132.297C208.326 131.319 207.518 130.386 206.662 129.504C202.842 126.024 198.833 122.777 194.656 119.779C193.132 118.732 191.529 117.817 189.862 117.045C188.231 116.256 186.386 116.098 184.655 116.601C182.924 117.104 181.419 118.234 180.409 119.791C174.619 128.754 173.253 135.71 169.4 141.576C164.373 149.099 158.499 155.961 151.905 162.013L156.699 167.386C164.162 173.441 172.714 177.857 181.843 180.372C181.843 180.372 190.568 165.778 195.574 162.06C209.249 151.888 208.432 147.817 210.56 143.418C211.422 141.627 211.743 139.602 211.478 137.615C211.214 135.628 210.378 133.773 209.081 132.297Z" fill="#254EF0"/>
<path d="M210.56 143.429C209.798 144.99 209.44 146.538 208.6 148.333C207.072 151.504 204.924 154.303 202.294 156.545C200.157 158.521 197.914 160.366 195.574 162.071C193.465 163.889 191.584 165.978 189.974 168.289C189.066 169.505 188.536 170.984 188.456 172.526C188.375 174.068 188.749 175.599 189.526 176.911C193.077 182.977 198.486 191.634 198.486 191.634C194.633 190.579 193.065 190.145 186.939 192.174C177.352 195.342 157.248 192.55 151.581 184.068C153.099 180.102 155.485 176.566 158.547 173.744C155.034 176.181 151.812 179.048 148.949 182.284C146.417 182.836 143.853 181.381 142.027 179.492C140.201 177.603 138.835 175.234 137.077 173.275C135.318 171.315 133.392 169.462 130.827 169.696C134.187 165.004 139.865 163.08 145.208 161.484C149.195 160.311 154.28 158.551 158.088 155.912C162.268 151.507 166.064 146.721 169.433 141.611C173.275 135.745 174.63 128.788 180.443 119.814C181.451 118.256 182.956 117.124 184.687 116.621C186.419 116.118 188.265 116.277 189.896 117.069C191.562 117.845 193.166 118.763 194.689 119.814C198.858 122.809 202.863 126.049 206.684 129.516C207.538 130.404 208.346 131.34 209.104 132.32C210.39 133.8 211.218 135.654 211.478 137.638C211.738 139.621 211.418 141.641 210.56 143.429Z" fill="#254EF0"/>
<path d="M263.547 128.12L269.315 125.504C269.553 125.395 269.779 125.257 269.987 125.093L272.585 122.97C272.766 122.825 272.9 122.627 272.97 122.4C273.04 122.174 273.042 121.931 272.977 121.703L270.345 117.315C270.268 116.991 270.079 116.708 269.814 116.522C269.549 116.335 269.228 116.259 268.912 116.306L265.014 117.831C264.721 117.941 264.459 118.127 264.253 118.371L260.344 122.829C260.187 123.039 260.086 123.289 260.053 123.553C260.019 123.817 260.054 124.085 260.153 124.331L261.878 127.193C261.991 127.541 262.227 127.831 262.537 128.003C262.847 128.176 263.208 128.217 263.547 128.12Z" fill="#FF8B7B"/>
<path opacity="0.2" d="M202.283 156.522L204.769 142.327L210.033 145.295C208.174 150.445 205.99 153.073 202.283 156.522Z" fill="black"/>
<path d="M240.329 146.715C247.52 141.482 256.547 134.091 263.133 128.144C263.749 125.868 261.699 122.876 259.616 123.791C254.43 126.067 238.941 135.065 236.208 135.147C234.326 135.206 214.928 132.273 208.589 131.311C207.329 131.106 206.041 131.394 204.971 132.121C201.465 134.608 200.569 137.329 200.771 139.723C200.973 141.542 201.782 143.229 203.054 144.486C204.326 145.744 205.98 146.491 207.726 146.597C216.585 147.289 229.869 148.064 235.043 148.298C236.924 148.396 238.782 147.839 240.329 146.715Z" fill="#254EF0"/>
<path d="M216.014 111.015C213.976 117.151 211.243 128.859 206.752 133.305C202.261 137.751 195.955 137.998 189.952 139.476C188.507 139.851 186.659 141.764 186.681 141.459C185.191 143.199 184.249 145.378 183.982 147.7L177.453 142.362C176.797 141.908 176.258 141.291 175.885 140.567C175.688 139.903 175.652 139.199 175.779 138.518C175.906 137.836 176.192 137.198 176.613 136.66C177.438 135.225 178.1 133.694 178.584 132.097C176.319 133.872 174.624 136.327 173.723 139.136C170.542 137.963 166.824 135.159 166.757 131.616C166.733 130.213 166.99 128.821 167.513 127.529C168.036 126.238 168.813 125.076 169.792 124.119C167.567 125.354 165.766 127.286 164.64 129.645C163.957 127.545 162.288 125.457 160.16 125.527C161.788 121.741 163.877 118.192 166.376 114.969C168.997 111.883 172.569 109.455 176.456 109.173C179.457 108.95 182.403 109.971 185.27 110.921C188.137 111.871 191.117 112.798 194.096 112.399C197.075 112.001 200.144 107.214 200.704 104.117C204.96 101.559 210.941 107.848 216.014 111.015Z" fill="#263238"/>
<path opacity="0.2" d="M235.861 105.431C235.562 111.526 232.965 117.247 228.641 121.337C224.317 125.426 218.619 127.55 212.8 127.24H212.721C211.808 127.183 210.899 127.065 210 126.888C205.732 120.575 199.98 115.524 193.301 112.224C192.993 111.342 192.739 110.441 192.539 109.525C191.823 106.32 191.772 102.991 192.39 99.7628C193.008 96.5349 194.28 93.4835 196.12 90.8147C197.96 88.1459 200.325 85.9219 203.057 84.2928C205.788 82.6638 208.821 81.6677 211.951 81.3719C215.081 81.0761 218.236 81.4874 221.201 82.578C224.166 83.6687 226.874 85.4132 229.14 87.6939C231.407 89.9746 233.18 92.7383 234.339 95.7982C235.498 98.8581 236.017 102.143 235.861 105.431Z" fill="black"/>
<path d="M221.368 125.926C218.627 126.954 215.718 127.4 212.811 127.24H212.733C211.815 127.184 210.903 127.067 210 126.888C205.734 120.573 199.982 115.521 193.301 112.224C192.988 111.344 192.733 110.442 192.539 109.525C191.872 106.563 191.773 103.492 192.248 100.49C192.722 97.4875 193.761 94.6137 195.304 92.035C196.847 89.4564 198.863 87.2242 201.236 85.4679C203.609 83.7116 206.291 82.4662 209.126 81.8037C210.414 82.4784 211.539 83.4489 212.419 84.6427C214.246 87.4008 215.351 90.6127 215.622 93.9576C216.273 98.997 216.159 104.112 215.286 109.115C214.612 112.548 214.931 116.115 216.205 119.356C218.4 124.565 221.368 125.926 221.368 125.926Z" fill="#254EF0"/>
<path opacity="0.4" d="M221.368 125.926C218.627 126.954 215.718 127.4 212.811 127.24H212.733C211.815 127.184 210.903 127.067 210 126.888C205.734 120.573 199.982 115.521 193.301 112.224C192.988 111.344 192.733 110.442 192.539 109.525C191.872 106.563 191.773 103.492 192.248 100.49C192.722 97.4875 193.761 94.6137 195.304 92.035C196.847 89.4564 198.863 87.2242 201.236 85.4679C203.609 83.7116 206.291 82.4662 209.126 81.8037C210.414 82.4784 211.539 83.4489 212.419 84.6427C214.246 87.4008 215.351 90.6127 215.622 93.9576C216.273 98.997 216.159 104.112 215.286 109.115C214.612 112.548 214.931 116.115 216.205 119.356C218.4 124.565 221.368 125.926 221.368 125.926Z" fill="white"/>
<path d="M212.453 128.929C212.353 129.023 212.236 129.096 212.109 129.141C211.983 129.187 211.848 129.206 211.714 129.196C211.58 129.186 211.45 129.148 211.33 129.084C211.211 129.02 211.105 128.931 211.019 128.823C210.661 128.213 210.28 127.65 209.899 127.017C205.729 120.632 200.049 115.49 193.413 112.094C192.729 111.731 192.046 111.402 191.363 111.085C190.68 110.769 190.859 109.912 191.363 109.431C191.554 109.287 191.783 109.209 192.018 109.209C192.253 109.209 192.483 109.287 192.673 109.431C192.831 109.524 192.959 109.662 193.043 109.83C200.928 113.803 207.682 119.87 212.632 127.427C212.776 127.66 212.837 127.938 212.804 128.213C212.771 128.487 212.647 128.741 212.453 128.929Z" fill="#254EF0"/>
<path d="M217.056 106.194C217.056 106.596 216.942 106.988 216.729 107.322C216.516 107.655 216.214 107.916 215.86 108.069C215.506 108.223 215.116 108.263 214.74 108.185C214.364 108.106 214.019 107.913 213.748 107.629C213.477 107.345 213.293 106.984 213.218 106.59C213.143 106.196 213.182 105.788 213.328 105.417C213.475 105.047 213.723 104.73 214.042 104.507C214.36 104.284 214.735 104.165 215.118 104.165C215.632 104.165 216.125 104.378 216.488 104.759C216.852 105.14 217.056 105.656 217.056 106.194Z" fill="#263238"/>
<path d="M217.705 106.757C217.708 107.161 217.595 107.558 217.382 107.895C217.168 108.233 216.864 108.496 216.508 108.652C216.151 108.808 215.758 108.849 215.379 108.771C215 108.693 214.652 108.498 214.379 108.212C214.105 107.926 213.92 107.561 213.845 107.164C213.77 106.767 213.809 106.355 213.958 105.982C214.107 105.608 214.359 105.29 214.681 105.066C215.003 104.843 215.381 104.725 215.768 104.727C216.281 104.73 216.772 104.945 217.135 105.325C217.497 105.705 217.702 106.219 217.705 106.757Z" fill="#254EF0"/>
<path opacity="0.7" d="M217.705 106.757C217.708 107.161 217.595 107.558 217.382 107.895C217.168 108.233 216.864 108.496 216.508 108.652C216.151 108.808 215.758 108.849 215.379 108.771C215 108.693 214.652 108.498 214.379 108.212C214.105 107.926 213.92 107.561 213.845 107.164C213.77 106.767 213.809 106.355 213.958 105.982C214.107 105.608 214.359 105.29 214.681 105.066C215.003 104.843 215.381 104.725 215.768 104.727C216.281 104.73 216.772 104.945 217.135 105.325C217.497 105.705 217.702 106.219 217.705 106.757Z" fill="white"/>
<path d="M490.907 57.6369C490.907 65.2754 488.01 72.601 482.854 78.0023C477.697 83.4035 470.704 86.4379 463.411 86.4379C462.795 86.4379 462.191 86.4379 461.575 86.3675C454.6 85.9005 448.057 82.6692 443.275 77.3303C438.494 71.9914 435.833 64.9456 435.833 57.6252C435.833 50.3047 438.494 43.2589 443.275 37.92C448.057 32.5811 454.6 29.3498 461.575 28.8828C462.191 28.8828 462.795 28.8828 463.411 28.8828C470.696 28.8828 477.683 31.9107 482.838 37.3018C487.993 42.6929 490.895 50.0065 490.907 57.6369Z" fill="#254EF0"/>
<path opacity="0.2" d="M487.2 57.6369C486.872 62.8895 485.085 67.9269 482.058 72.1288C479.032 76.3307 474.898 79.5135 470.166 81.2853C465.434 83.057 460.31 83.3404 455.426 82.1004C450.543 80.8604 446.112 78.1512 442.679 74.3065C439.247 70.4618 436.963 65.6495 436.11 60.4623C435.256 55.2752 435.869 49.9396 437.873 45.1129C439.878 40.2861 443.187 36.179 447.392 33.2973C451.597 30.4156 456.516 28.8852 461.541 28.8946C468.502 29.3799 475.026 32.6197 479.79 37.957C484.555 43.2943 487.204 50.3297 487.2 57.6369Z" fill="white"/>
<path opacity="0.4" d="M480.533 65.8793C484.882 54.8831 479.897 42.2765 469.399 37.7217C458.901 33.1669 446.865 38.3888 442.517 49.385C438.168 60.3812 443.154 72.9878 453.652 77.5426C464.15 82.0974 476.185 76.8756 480.533 65.8793Z" fill="white"/>
<path opacity="0.4" d="M465.073 72.9889C473.243 70.9692 478.302 62.395 476.374 53.8379C474.446 45.2808 466.26 39.9811 458.091 42.0008C449.922 44.0205 444.862 52.5946 446.79 61.1518C448.718 69.7089 456.904 75.0085 465.073 72.9889Z" fill="white"/>
<path d="M466.547 57.6372C466.547 58.8669 466.199 60.0691 465.547 61.0916C464.895 62.1141 463.967 62.911 462.883 63.3816C461.798 63.8522 460.605 63.9754 459.453 63.7354C458.302 63.4955 457.244 62.9033 456.414 62.0338C455.584 61.1642 455.018 60.0563 454.789 58.8502C454.56 57.6441 454.678 56.3939 455.127 55.2578C455.576 54.1216 456.337 53.1505 457.313 52.4673C458.29 51.7841 459.437 51.4194 460.611 51.4194C461.391 51.4179 462.164 51.5777 462.885 51.8896C463.605 52.2015 464.26 52.6594 464.812 53.2371C465.363 53.8148 465.801 54.5009 466.098 55.2559C466.396 56.011 466.549 56.8202 466.547 57.6372Z" fill="#263238"/>
<path d="M419.373 79.0006L424.872 79.9392L432.936 74.9533V74.9415L428.826 73.041L419.373 79.0006Z" fill="#254EF0"/>
<path d="M457.416 59.2352L424.665 79.5396L425.082 80.2765L457.833 59.9722L457.416 59.2352Z" fill="#263238"/>
<path d="M424.167 85.0887L432.119 80.1497L432.936 74.9526L424.872 79.9386L424.167 85.0887Z" fill="#254EF0"/>
<path opacity="0.2" d="M424.167 85.0887L432.119 80.1497L432.936 74.9526L424.872 79.9386L424.167 85.0887Z" fill="black"/>
<path d="M459.749 57.3203L454.283 58.7868L459.267 61.661L461.518 57.9186L459.749 57.3203Z" fill="white"/>
<path d="M462.56 20.8586C462.292 20.8664 462.025 20.8184 461.775 20.7174C461.525 20.6164 461.296 20.4644 461.102 20.2701C460.909 20.0759 460.754 19.8433 460.646 19.5859C460.539 19.3285 460.481 19.0513 460.477 18.7704V9.38515C460.477 8.81887 460.692 8.27579 461.074 7.87537C461.456 7.47495 461.975 7.25 462.515 7.25C463.056 7.25 463.575 7.47495 463.957 7.87537C464.339 8.27579 464.554 8.81887 464.554 9.38515V18.7704C464.545 19.3214 464.332 19.8473 463.96 20.237C463.588 20.6266 463.086 20.8496 462.56 20.8586Z" fill="#254EF0"/>
<path d="M462.56 108.13C462.292 108.131 462.026 108.077 461.778 107.97C461.53 107.864 461.305 107.706 461.115 107.508C460.926 107.309 460.776 107.073 460.674 106.813C460.572 106.554 460.52 106.275 460.522 105.995V96.6093C460.522 96.043 460.736 95.4999 461.119 95.0995C461.501 94.6991 462.019 94.4741 462.56 94.4741C463.101 94.4741 463.619 94.6991 464.001 95.0995C464.384 95.4999 464.598 96.043 464.598 96.6093V105.995C464.6 106.275 464.548 106.554 464.446 106.813C464.344 107.073 464.194 107.309 464.005 107.508C463.815 107.706 463.59 107.864 463.342 107.97C463.094 108.077 462.828 108.131 462.56 108.13Z" fill="#254EF0"/>
<path d="M425.466 58.4349H416.45C416.169 58.4567 415.886 58.4175 415.62 58.3198C415.354 58.2221 415.11 58.0679 414.904 57.867C414.697 57.666 414.532 57.4226 414.419 57.1519C414.307 56.8813 414.249 56.5891 414.249 56.2938C414.249 55.9986 414.307 55.7064 414.419 55.4357C414.532 55.1651 414.697 54.9216 414.904 54.7207C415.11 54.5198 415.354 54.3656 415.62 54.2679C415.886 54.1702 416.169 54.131 416.45 54.1528H425.466C425.747 54.131 426.029 54.1702 426.295 54.2679C426.561 54.3656 426.805 54.5198 427.012 54.7207C427.218 54.9216 427.383 55.1651 427.496 55.4357C427.609 55.7064 427.667 55.9986 427.667 56.2938C427.667 56.5891 427.609 56.8813 427.496 57.1519C427.383 57.4226 427.218 57.666 427.012 57.867C426.805 58.0679 426.561 58.2221 426.295 58.3198C426.029 58.4175 425.747 58.4567 425.466 58.4349Z" fill="#254EF0"/>
<path d="M509.757 58.4344H500.73C500.214 58.3943 499.731 58.1514 499.379 57.7543C499.027 57.3572 498.832 56.8353 498.832 56.2934C498.832 55.7514 499.027 55.2295 499.379 54.8324C499.731 54.4353 500.214 54.1924 500.73 54.1523H509.757C510.273 54.1924 510.755 54.4353 511.107 54.8324C511.459 55.2295 511.655 55.7514 511.655 56.2934C511.655 56.8353 511.459 57.3572 511.107 57.7543C510.755 58.1514 510.273 58.3943 509.757 58.4344Z" fill="#254EF0"/>
</svg>
